<svg width="301" height="53" viewBox="0 0 301 53" fill="none" xmlns="http://www.w3.org/2000/svg">
    <path d="M121.305 12.096C120.676 12.096 120.111 11.984 119.609 11.76C119.108 11.536 118.708 11.1733 118.409 10.672C118.111 10.1707 117.961 9.504 117.961 8.672V0.704C117.961 0.565333 118.015 0.463999 118.121 0.4C118.228 0.336 118.351 0.304 118.489 0.304C118.628 0.304 118.751 0.336 118.857 0.4C118.964 0.463999 119.017 0.565333 119.017 0.704V8.672C119.017 9.51467 119.22 10.1333 119.625 10.528C120.031 10.9227 120.591 11.12 121.305 11.12C122.031 11.12 122.596 10.9227 123.001 10.528C123.407 10.1333 123.609 9.51467 123.609 8.672V0.704C123.609 0.565333 123.663 0.463999 123.769 0.4C123.876 0.336 123.999 0.304 124.137 0.304C124.276 0.304 124.399 0.336 124.505 0.4C124.612 0.463999 124.665 0.565333 124.665 0.704V8.672C124.665 9.504 124.516 10.1707 124.217 10.672C123.929 11.1733 123.529 11.536 123.017 11.76C122.505 11.984 121.935 12.096 121.305 12.096ZM131.169 12C131.03 12 130.908 11.968 130.801 11.904C130.694 11.8293 130.641 11.7227 130.641 11.584V0.704C130.641 0.554666 130.694 0.453333 130.801 0.4C130.908 0.336 131.03 0.304 131.169 0.304C131.297 0.304 131.409 0.341333 131.505 0.415999C131.601 0.479999 131.692 0.570666 131.777 0.688C131.862 0.794666 131.937 0.917333 132.001 1.056L136.321 9.552V0.704C136.321 0.565333 136.374 0.463999 136.481 0.4C136.588 0.336 136.71 0.304 136.849 0.304C136.977 0.304 137.094 0.336 137.201 0.4C137.318 0.463999 137.377 0.565333 137.377 0.704V11.584C137.377 11.7227 137.318 11.8293 137.201 11.904C137.094 11.968 136.977 12 136.849 12C136.7 12 136.561 11.9413 136.433 11.824C136.316 11.696 136.22 11.552 136.145 11.392L131.697 2.736V11.584C131.697 11.7227 131.638 11.8293 131.521 11.904C131.414 11.968 131.297 12 131.169 12ZM143.941 12C143.802 12 143.68 11.968 143.573 11.904C143.466 11.8293 143.413 11.7227 143.413 11.584V0.704C143.413 0.565333 143.466 0.463999 143.573 0.4C143.68 0.336 143.802 0.304 143.941 0.304C144.069 0.304 144.186 0.336 144.293 0.4C144.41 0.463999 144.469 0.565333 144.469 0.704V11.584C144.469 11.7227 144.41 11.8293 144.293 11.904C144.186 11.968 144.069 12 143.941 12ZM153.105 12C152.967 12 152.844 11.968 152.737 11.904C152.631 11.8293 152.577 11.7227 152.577 11.584V1.296H149.889C149.761 1.296 149.66 1.248 149.585 1.152C149.511 1.04533 149.473 0.927999 149.473 0.799999C149.473 0.672 149.511 0.56 149.585 0.464C149.66 0.357333 149.761 0.304 149.889 0.304H156.305C156.444 0.304 156.545 0.357333 156.609 0.464C156.673 0.56 156.705 0.666666 156.705 0.783999C156.705 0.912 156.673 1.02933 156.609 1.136C156.545 1.24267 156.444 1.296 156.305 1.296H153.633V11.584C153.633 11.7227 153.575 11.8293 153.457 11.904C153.351 11.968 153.233 12 153.105 12ZM169.421 12C169.283 12 169.16 11.968 169.053 11.904C168.947 11.8293 168.893 11.7227 168.893 11.584V2.112L168.253 3.136C168.211 3.2 168.163 3.248 168.109 3.28C168.056 3.312 168.003 3.328 167.949 3.328C167.832 3.328 167.731 3.28 167.645 3.184C167.571 3.088 167.533 2.98133 167.533 2.864C167.533 2.78933 167.56 2.704 167.613 2.608C167.667 2.50133 167.715 2.42667 167.757 2.384L169.085 0.528C169.139 0.463999 169.192 0.410666 169.245 0.367999C169.299 0.314666 169.379 0.287999 169.485 0.287999C169.603 0.287999 169.709 0.325333 169.805 0.4C169.901 0.463999 169.949 0.565333 169.949 0.704V11.584C169.949 11.7227 169.891 11.8293 169.773 11.904C169.667 11.968 169.549 12 169.421 12ZM178.915 12.096C178.297 12.096 177.737 11.984 177.235 11.76C176.734 11.536 176.334 11.1733 176.035 10.672C175.737 10.1707 175.587 9.504 175.587 8.672V3.728C175.587 2.896 175.737 2.22933 176.035 1.728C176.334 1.22667 176.729 0.864 177.219 0.639999C177.721 0.416 178.286 0.304 178.915 0.304C179.545 0.304 180.11 0.416 180.611 0.639999C181.113 0.864 181.513 1.22667 181.811 1.728C182.11 2.22933 182.259 2.896 182.259 3.728V8.672C182.259 9.504 182.11 10.1707 181.811 10.672C181.513 11.1733 181.113 11.536 180.611 11.76C180.11 11.984 179.545 12.096 178.915 12.096ZM178.915 11.12C179.63 11.12 180.185 10.9227 180.579 10.528C180.985 10.1333 181.187 9.51467 181.187 8.672V3.728C181.187 2.88533 180.985 2.26667 180.579 1.872C180.185 1.47733 179.63 1.28 178.915 1.28C178.201 1.28 177.646 1.47733 177.251 1.872C176.857 2.26667 176.659 2.88533 176.659 3.728V8.672C176.659 9.51467 176.857 10.1333 177.251 10.528C177.646 10.9227 178.201 11.12 178.915 11.12ZM178.931 6.8C178.761 6.8 178.617 6.74133 178.499 6.624C178.393 6.50667 178.339 6.368 178.339 6.208C178.339 6.03733 178.393 5.89867 178.499 5.792C178.617 5.68533 178.761 5.632 178.931 5.632C179.102 5.632 179.241 5.68533 179.347 5.792C179.454 5.89867 179.507 6.03733 179.507 6.208C179.507 6.368 179.454 6.50667 179.347 6.624C179.241 6.74133 179.102 6.8 178.931 6.8ZM1.10851 32C0.991173 32 0.879173 31.968 0.772506 31.904C0.676506 31.8293 0.628506 31.7227 0.628506 31.584V20.704C0.628506 20.5653 0.68184 20.464 0.788506 20.4C0.895173 20.336 1.01784 20.304 1.15651 20.304C1.28451 20.304 1.40184 20.336 1.50851 20.4C1.62584 20.464 1.68451 20.5653 1.68451 20.704V31.024H6.24451C6.37251 31.024 6.46317 31.0773 6.51651 31.184C6.56984 31.28 6.59651 31.3867 6.59651 31.504C6.59651 31.632 6.56984 31.7493 6.51651 31.856C6.46317 31.952 6.37251 32 6.24451 32H1.10851ZM12.1471 32C12.0085 32 11.8858 31.968 11.7791 31.904C11.6725 31.8293 11.6191 31.7227 11.6191 31.584V20.704C11.6191 20.5653 11.6725 20.464 11.7791 20.4C11.8858 20.336 12.0085 20.304 12.1471 20.304C12.2751 20.304 12.3925 20.336 12.4991 20.4C12.6165 20.464 12.6751 20.5653 12.6751 20.704V31.584C12.6751 31.7227 12.6165 31.8293 12.4991 31.904C12.3925 31.968 12.2751 32 12.1471 32ZM21.3115 32C21.1728 32 21.0502 31.968 20.9435 31.904C20.8368 31.8293 20.7835 31.7227 20.7835 31.584V21.296H18.0955C17.9675 21.296 17.8662 21.248 17.7915 21.152C17.7168 21.0453 17.6795 20.928 17.6795 20.8C17.6795 20.672 17.7168 20.56 17.7915 20.464C17.8662 20.3573 17.9675 20.304 18.0955 20.304H24.5115C24.6502 20.304 24.7515 20.3573 24.8155 20.464C24.8795 20.56 24.9115 20.6667 24.9115 20.784C24.9115 20.912 24.8795 21.0293 24.8155 21.136C24.7515 21.2427 24.6502 21.296 24.5115 21.296H21.8395V31.584C21.8395 31.7227 21.7808 31.8293 21.6635 31.904C21.5568 31.968 21.4395 32 21.3115 32ZM32.5365 32C32.3978 32 32.2752 31.968 32.1685 31.904C32.0618 31.8293 32.0085 31.7227 32.0085 31.584V21.296H29.3205C29.1925 21.296 29.0912 21.248 29.0165 21.152C28.9418 21.0453 28.9045 20.928 28.9045 20.8C28.9045 20.672 28.9418 20.56 29.0165 20.464C29.0912 20.3573 29.1925 20.304 29.3205 20.304H35.7365C35.8752 20.304 35.9765 20.3573 36.0405 20.464C36.1045 20.56 36.1365 20.6667 36.1365 20.784C36.1365 20.912 36.1045 21.0293 36.0405 21.136C35.9765 21.2427 35.8752 21.296 35.7365 21.296H33.0645V31.584C33.0645 31.7227 33.0058 31.8293 32.8885 31.904C32.7818 31.968 32.6645 32 32.5365 32ZM41.6335 32C41.5162 32 41.4042 31.968 41.2975 31.904C41.2015 31.8293 41.1535 31.7227 41.1535 31.584V20.704C41.1535 20.5653 41.2068 20.464 41.3135 20.4C41.4202 20.336 41.5428 20.304 41.6815 20.304C41.8095 20.304 41.9268 20.336 42.0335 20.4C42.1508 20.464 42.2095 20.5653 42.2095 20.704V31.024H46.7695C46.8975 31.024 46.9882 31.0773 47.0415 31.184C47.0948 31.28 47.1215 31.3867 47.1215 31.504C47.1215 31.632 47.0948 31.7493 47.0415 31.856C46.9882 31.952 46.8975 32 46.7695 32H41.6335ZM52.6241 32C52.5068 32 52.3948 31.968 52.2881 31.904C52.1921 31.8293 52.1441 31.7227 52.1441 31.584V20.72C52.1441 20.5813 52.1921 20.48 52.2881 20.416C52.3948 20.3413 52.5068 20.304 52.6241 20.304H58.3201C58.4588 20.304 58.5601 20.3573 58.6241 20.464C58.6881 20.56 58.7201 20.6667 58.7201 20.784C58.7201 20.912 58.6828 21.0293 58.6081 21.136C58.5441 21.232 58.4481 21.28 58.3201 21.28H53.2001V25.68H55.7121C55.8401 25.68 55.9361 25.728 56.0001 25.824C56.0748 25.92 56.1121 26.032 56.1121 26.16C56.1121 26.2667 56.0801 26.368 56.0161 26.464C55.9521 26.56 55.8508 26.608 55.7121 26.608H53.2001V31.024H58.3201C58.4481 31.024 58.5441 31.072 58.6081 31.168C58.6828 31.264 58.7201 31.3813 58.7201 31.52C58.7201 31.6373 58.6881 31.7493 58.6241 31.856C58.5601 31.952 58.4588 32 58.3201 32H52.6241ZM71.2003 32C71.0616 32 70.9389 31.968 70.8323 31.904C70.7256 31.8293 70.6723 31.7227 70.6723 31.584V20.816C70.6723 20.624 70.7256 20.4907 70.8323 20.416C70.9389 20.3413 71.0616 20.304 71.2003 20.304C71.3283 20.304 71.4403 20.3413 71.5363 20.416C71.6429 20.48 71.7389 20.5707 71.8243 20.688C71.9096 20.7947 71.9843 20.9173 72.0483 21.056L74.8003 26.352L77.5363 21.056C77.6216 20.9173 77.7016 20.7947 77.7763 20.688C77.8616 20.5707 77.9576 20.48 78.0643 20.416C78.1709 20.3413 78.2829 20.304 78.4003 20.304C78.5496 20.304 78.6723 20.3413 78.7683 20.416C78.8749 20.4907 78.9283 20.624 78.9283 20.816V31.584C78.9283 31.7227 78.8749 31.8293 78.7683 31.904C78.6616 31.968 78.5389 32 78.4003 32C78.2723 32 78.1496 31.968 78.0323 31.904C77.9256 31.8293 77.8723 31.7227 77.8723 31.584V22.592L75.2163 27.616C75.1523 27.744 75.0829 27.8347 75.0083 27.888C74.9336 27.9413 74.8589 27.968 74.7843 27.968C74.7203 27.968 74.6509 27.9413 74.5763 27.888C74.5016 27.8347 74.4269 27.744 74.3523 27.616L71.7283 22.56V31.584C71.7283 31.7227 71.6696 31.8293 71.5523 31.904C71.4456 31.968 71.3283 32 71.2003 32ZM85.4878 32C85.3491 32 85.2264 31.968 85.1198 31.904C85.0131 31.8293 84.9598 31.7227 84.9598 31.584V20.704C84.9598 20.5653 85.0131 20.464 85.1198 20.4C85.2264 20.336 85.3491 20.304 85.4878 20.304C85.6158 20.304 85.7331 20.336 85.8398 20.4C85.9571 20.464 86.0158 20.5653 86.0158 20.704V31.584C86.0158 31.7227 85.9571 31.8293 85.8398 31.904C85.7331 31.968 85.6158 32 85.4878 32ZM92.5241 32C92.4068 32 92.2948 31.968 92.1881 31.904C92.0921 31.8293 92.0441 31.7227 92.0441 31.584V20.704C92.0441 20.5653 92.0975 20.464 92.2041 20.4C92.3108 20.336 92.4335 20.304 92.5721 20.304C92.7001 20.304 92.8175 20.336 92.9241 20.4C93.0415 20.464 93.1001 20.5653 93.1001 20.704V31.024H97.6601C97.7881 31.024 97.8788 31.0773 97.9321 31.184C97.9855 31.28 98.0121 31.3867 98.0121 31.504C98.0121 31.632 97.9855 31.7493 97.9321 31.856C97.8788 31.952 97.7881 32 97.6601 32H92.5241ZM103.515 32C103.397 32 103.285 31.968 103.179 31.904C103.083 31.8293 103.035 31.7227 103.035 31.584V20.704C103.035 20.5653 103.088 20.464 103.195 20.4C103.301 20.336 103.424 20.304 103.563 20.304C103.691 20.304 103.808 20.336 103.915 20.4C104.032 20.464 104.091 20.5653 104.091 20.704V31.024H108.651C108.779 31.024 108.869 31.0773 108.923 31.184C108.976 31.28 109.003 31.3867 109.003 31.504C109.003 31.632 108.976 31.7493 108.923 31.856C108.869 31.952 108.779 32 108.651 32H103.515ZM121.357 32C121.218 32 121.095 31.968 120.989 31.904C120.882 31.8293 120.829 31.7227 120.829 31.584V20.704C120.829 20.5653 120.882 20.464 120.989 20.4C121.095 20.336 121.218 20.304 121.357 20.304C121.485 20.304 121.602 20.336 121.709 20.4C121.826 20.464 121.885 20.5653 121.885 20.704V31.584C121.885 31.7227 121.826 31.8293 121.709 31.904C121.602 31.968 121.485 32 121.357 32ZM128.441 32C128.302 32 128.18 31.968 128.073 31.904C127.966 31.8293 127.913 31.7227 127.913 31.584V20.704C127.913 20.5547 127.966 20.4533 128.073 20.4C128.18 20.336 128.302 20.304 128.441 20.304C128.569 20.304 128.681 20.3413 128.777 20.416C128.873 20.48 128.964 20.5707 129.049 20.688C129.134 20.7947 129.209 20.9173 129.273 21.056L133.593 29.552V20.704C133.593 20.5653 133.646 20.464 133.753 20.4C133.86 20.336 133.982 20.304 134.121 20.304C134.249 20.304 134.366 20.336 134.473 20.4C134.59 20.464 134.649 20.5653 134.649 20.704V31.584C134.649 31.7227 134.59 31.8293 134.473 31.904C134.366 31.968 134.249 32 134.121 32C133.972 32 133.833 31.9413 133.705 31.824C133.588 31.696 133.492 31.552 133.417 31.392L128.969 22.736V31.584C128.969 31.7227 128.91 31.8293 128.793 31.904C128.686 31.968 128.569 32 128.441 32ZM141.165 32C141.015 32 140.898 31.9627 140.813 31.888C140.727 31.8133 140.685 31.7173 140.685 31.6V20.704C140.685 20.5867 140.727 20.4907 140.813 20.416C140.898 20.3413 141.015 20.304 141.165 20.304H143.997C144.626 20.304 145.191 20.416 145.693 20.64C146.205 20.864 146.605 21.2267 146.893 21.728C147.191 22.2293 147.341 22.896 147.341 23.728V28.576C147.341 29.408 147.191 30.0747 146.893 30.576C146.605 31.0773 146.205 31.44 145.693 31.664C145.191 31.888 144.626 32 143.997 32H141.165ZM141.741 31.024H143.997C144.711 31.024 145.271 30.8267 145.677 30.432C146.082 30.0373 146.285 29.4187 146.285 28.576V23.728C146.285 22.8853 146.082 22.2667 145.677 21.872C145.271 21.4773 144.711 21.28 143.997 21.28H141.741V31.024ZM156.518 32.096C155.889 32.096 155.323 31.984 154.822 31.76C154.321 31.536 153.921 31.1733 153.622 30.672C153.323 30.1707 153.174 29.504 153.174 28.672V20.704C153.174 20.5653 153.227 20.464 153.334 20.4C153.441 20.336 153.563 20.304 153.702 20.304C153.841 20.304 153.963 20.336 154.07 20.4C154.177 20.464 154.23 20.5653 154.23 20.704V28.672C154.23 29.5147 154.433 30.1333 154.838 30.528C155.243 30.9227 155.803 31.12 156.518 31.12C157.243 31.12 157.809 30.9227 158.214 30.528C158.619 30.1333 158.822 29.5147 158.822 28.672V20.704C158.822 20.5653 158.875 20.464 158.982 20.4C159.089 20.336 159.211 20.304 159.35 20.304C159.489 20.304 159.611 20.336 159.718 20.4C159.825 20.464 159.878 20.5653 159.878 20.704V28.672C159.878 29.504 159.729 30.1707 159.43 30.672C159.142 31.1733 158.742 31.536 158.23 31.76C157.718 31.984 157.147 32.096 156.518 32.096ZM168.494 32.112C167.811 32.112 167.224 32.0107 166.734 31.808C166.243 31.5947 165.864 31.3547 165.598 31.088C165.342 30.8107 165.214 30.576 165.214 30.384C165.214 30.2987 165.235 30.208 165.278 30.112C165.331 30.016 165.395 29.9413 165.47 29.888C165.544 29.824 165.619 29.792 165.694 29.792C165.8 29.792 165.907 29.8613 166.014 30C166.131 30.128 166.28 30.2827 166.462 30.464C166.654 30.6347 166.904 30.7893 167.214 30.928C167.523 31.056 167.928 31.12 168.43 31.12C168.931 31.12 169.358 31.04 169.71 30.88C170.062 30.7093 170.334 30.464 170.526 30.144C170.718 29.8133 170.814 29.4027 170.814 28.912C170.814 28.4 170.718 27.9893 170.526 27.68C170.334 27.3707 170.078 27.1147 169.758 26.912C169.448 26.7093 169.107 26.5387 168.734 26.4C168.36 26.2613 167.982 26.1173 167.598 25.968C167.224 25.8187 166.878 25.6373 166.558 25.424C166.238 25.2 165.982 24.912 165.79 24.56C165.598 24.1973 165.502 23.7387 165.502 23.184C165.502 22.608 165.608 22.1333 165.822 21.76C166.035 21.376 166.307 21.0773 166.638 20.864C166.979 20.6507 167.347 20.5013 167.742 20.416C168.136 20.32 168.52 20.272 168.894 20.272C169.192 20.272 169.496 20.2987 169.806 20.352C170.126 20.3947 170.419 20.4587 170.686 20.544C170.952 20.6293 171.166 20.736 171.326 20.864C171.496 20.9813 171.582 21.1147 171.582 21.264C171.582 21.328 171.56 21.408 171.518 21.504C171.486 21.5893 171.438 21.6693 171.374 21.744C171.31 21.8187 171.224 21.856 171.118 21.856C171.022 21.856 170.888 21.808 170.718 21.712C170.547 21.6053 170.312 21.504 170.014 21.408C169.726 21.3013 169.347 21.248 168.878 21.248C168.494 21.248 168.12 21.3013 167.758 21.408C167.406 21.5147 167.118 21.7067 166.894 21.984C166.67 22.2507 166.558 22.6187 166.558 23.088C166.558 23.5147 166.654 23.8613 166.846 24.128C167.048 24.384 167.304 24.592 167.614 24.752C167.934 24.912 168.28 25.0613 168.654 25.2C169.027 25.328 169.4 25.4773 169.774 25.648C170.158 25.808 170.504 26.016 170.814 26.272C171.134 26.5173 171.39 26.8427 171.582 27.248C171.774 27.6533 171.87 28.176 171.87 28.816C171.87 29.5733 171.726 30.1973 171.438 30.688C171.15 31.168 170.75 31.5253 170.238 31.76C169.736 31.9947 169.155 32.112 168.494 32.112ZM179.905 32C179.767 32 179.644 31.968 179.537 31.904C179.431 31.8293 179.377 31.7227 179.377 31.584V21.296H176.689C176.561 21.296 176.46 21.248 176.385 21.152C176.311 21.0453 176.273 20.928 176.273 20.8C176.273 20.672 176.311 20.56 176.385 20.464C176.46 20.3573 176.561 20.304 176.689 20.304H183.105C183.244 20.304 183.345 20.3573 183.409 20.464C183.473 20.56 183.505 20.6667 183.505 20.784C183.505 20.912 183.473 21.0293 183.409 21.136C183.345 21.2427 183.244 21.296 183.105 21.296H180.433V31.584C180.433 31.7227 180.375 31.8293 180.257 31.904C180.151 31.968 180.033 32 179.905 32ZM194.634 32.032C194.517 32.032 194.41 31.9733 194.314 31.856C194.218 31.728 194.138 31.6 194.074 31.472L191.61 26.672H189.578V31.584C189.578 31.7227 189.52 31.8293 189.402 31.904C189.296 31.968 189.178 32 189.05 32C188.912 32 188.789 31.968 188.682 31.904C188.576 31.8293 188.522 31.7227 188.522 31.584V20.704C188.522 20.5973 188.56 20.5067 188.634 20.432C188.709 20.3573 188.805 20.3147 188.922 20.304H191.754C192.384 20.304 192.96 20.4 193.482 20.592C194.005 20.784 194.421 21.1093 194.73 21.568C195.05 22.0267 195.21 22.656 195.21 23.456C195.21 24.1173 195.098 24.6613 194.874 25.088C194.661 25.5147 194.362 25.8453 193.978 26.08C193.605 26.304 193.184 26.4587 192.714 26.544L195.178 31.28C195.21 31.312 195.226 31.3493 195.226 31.392C195.237 31.424 195.242 31.456 195.242 31.488C195.242 31.5733 195.21 31.6587 195.146 31.744C195.093 31.8293 195.018 31.8987 194.922 31.952C194.826 32.0053 194.73 32.032 194.634 32.032ZM189.578 25.76H191.754C192.469 25.76 193.045 25.5893 193.482 25.248C193.93 24.896 194.154 24.32 194.154 23.52C194.154 22.7093 193.93 22.1333 193.482 21.792C193.045 21.4507 192.469 21.28 191.754 21.28H189.578V25.76ZM201.103 32C200.965 32 200.842 31.968 200.735 31.904C200.629 31.8293 200.575 31.7227 200.575 31.584V20.704C200.575 20.5653 200.629 20.464 200.735 20.4C200.842 20.336 200.965 20.304 201.103 20.304C201.231 20.304 201.349 20.336 201.455 20.4C201.573 20.464 201.631 20.5653 201.631 20.704V31.584C201.631 31.7227 201.573 31.8293 201.455 31.904C201.349 31.968 201.231 32 201.103 32ZM207.372 32C207.286 32 207.196 31.984 207.1 31.952C207.004 31.9093 206.924 31.856 206.86 31.792C206.796 31.7173 206.764 31.6373 206.764 31.552C206.764 31.5093 206.769 31.472 206.78 31.44L210.124 20.592C210.166 20.4533 210.246 20.3573 210.364 20.304C210.481 20.24 210.609 20.208 210.748 20.208C210.897 20.208 211.03 20.24 211.148 20.304C211.276 20.368 211.356 20.464 211.388 20.592L214.716 31.44C214.726 31.472 214.732 31.504 214.732 31.536C214.732 31.6213 214.7 31.7013 214.636 31.776C214.572 31.84 214.492 31.8933 214.396 31.936C214.3 31.9787 214.198 32 214.092 32C214.006 32 213.926 31.9787 213.852 31.936C213.777 31.8933 213.724 31.824 213.692 31.728L212.956 29.264H208.54L207.804 31.728C207.772 31.824 207.718 31.8933 207.644 31.936C207.569 31.9787 207.478 32 207.372 32ZM208.796 28.352H212.684L210.748 21.904L208.796 28.352ZM220.349 32C220.232 32 220.12 31.968 220.013 31.904C219.917 31.8293 219.869 31.7227 219.869 31.584V20.704C219.869 20.5653 219.922 20.464 220.029 20.4C220.136 20.336 220.258 20.304 220.397 20.304C220.525 20.304 220.642 20.336 220.749 20.4C220.866 20.464 220.925 20.5653 220.925 20.704V31.024H225.485C225.613 31.024 225.704 31.0773 225.757 31.184C225.81 31.28 225.837 31.3867 225.837 31.504C225.837 31.632 225.81 31.7493 225.757 31.856C225.704 31.952 225.613 32 225.485 32H220.349ZM238.143 32C238.026 32 237.914 31.968 237.807 31.904C237.711 31.8293 237.663 31.7227 237.663 31.584V20.72C237.663 20.5813 237.711 20.48 237.807 20.416C237.914 20.3413 238.026 20.304 238.143 20.304H243.839C243.978 20.304 244.079 20.3573 244.143 20.464C244.207 20.56 244.239 20.6667 244.239 20.784C244.239 20.912 244.202 21.0293 244.127 21.136C244.063 21.232 243.967 21.28 243.839 21.28H238.719V25.68H241.231C241.359 25.68 241.455 25.728 241.519 25.824C241.594 25.92 241.631 26.032 241.631 26.16C241.631 26.2667 241.599 26.368 241.535 26.464C241.471 26.56 241.37 26.608 241.231 26.608H238.719V31.024H243.839C243.967 31.024 244.063 31.072 244.127 31.168C244.202 31.264 244.239 31.3813 244.239 31.52C244.239 31.6373 244.207 31.7493 244.143 31.856C244.079 31.952 243.978 32 243.839 32H238.143ZM252.028 32.112C251.345 32.112 250.759 32.0107 250.268 31.808C249.777 31.5947 249.399 31.3547 249.132 31.088C248.876 30.8107 248.748 30.576 248.748 30.384C248.748 30.2987 248.769 30.208 248.812 30.112C248.865 30.016 248.929 29.9413 249.004 29.888C249.079 29.824 249.153 29.792 249.228 29.792C249.335 29.792 249.441 29.8613 249.548 30C249.665 30.128 249.815 30.2827 249.996 30.464C250.188 30.6347 250.439 30.7893 250.748 30.928C251.057 31.056 251.463 31.12 251.964 31.12C252.465 31.12 252.892 31.04 253.244 30.88C253.596 30.7093 253.868 30.464 254.06 30.144C254.252 29.8133 254.348 29.4027 254.348 28.912C254.348 28.4 254.252 27.9893 254.06 27.68C253.868 27.3707 253.612 27.1147 253.292 26.912C252.983 26.7093 252.641 26.5387 252.268 26.4C251.895 26.2613 251.516 26.1173 251.132 25.968C250.759 25.8187 250.412 25.6373 250.092 25.424C249.772 25.2 249.516 24.912 249.324 24.56C249.132 24.1973 249.036 23.7387 249.036 23.184C249.036 22.608 249.143 22.1333 249.356 21.76C249.569 21.376 249.841 21.0773 250.172 20.864C250.513 20.6507 250.881 20.5013 251.276 20.416C251.671 20.32 252.055 20.272 252.428 20.272C252.727 20.272 253.031 20.2987 253.34 20.352C253.66 20.3947 253.953 20.4587 254.22 20.544C254.487 20.6293 254.7 20.736 254.86 20.864C255.031 20.9813 255.116 21.1147 255.116 21.264C255.116 21.328 255.095 21.408 255.052 21.504C255.02 21.5893 254.972 21.6693 254.908 21.744C254.844 21.8187 254.759 21.856 254.652 21.856C254.556 21.856 254.423 21.808 254.252 21.712C254.081 21.6053 253.847 21.504 253.548 21.408C253.26 21.3013 252.881 21.248 252.412 21.248C252.028 21.248 251.655 21.3013 251.292 21.408C250.94 21.5147 250.652 21.7067 250.428 21.984C250.204 22.2507 250.092 22.6187 250.092 23.088C250.092 23.5147 250.188 23.8613 250.38 24.128C250.583 24.384 250.839 24.592 251.148 24.752C251.468 24.912 251.815 25.0613 252.188 25.2C252.561 25.328 252.935 25.4773 253.308 25.648C253.692 25.808 254.039 26.016 254.348 26.272C254.668 26.5173 254.924 26.8427 255.116 27.248C255.308 27.6533 255.404 28.176 255.404 28.816C255.404 29.5733 255.26 30.1973 254.972 30.688C254.684 31.168 254.284 31.5253 253.772 31.76C253.271 31.9947 252.689 32.112 252.028 32.112ZM263.44 32C263.301 32 263.178 31.968 263.072 31.904C262.965 31.8293 262.912 31.7227 262.912 31.584V21.296H260.224C260.096 21.296 259.994 21.248 259.92 21.152C259.845 21.0453 259.808 20.928 259.808 20.8C259.808 20.672 259.845 20.56 259.92 20.464C259.994 20.3573 260.096 20.304 260.224 20.304H266.64C266.778 20.304 266.88 20.3573 266.944 20.464C267.008 20.56 267.04 20.6667 267.04 20.784C267.04 20.912 267.008 21.0293 266.944 21.136C266.88 21.2427 266.778 21.296 266.64 21.296H263.968V31.584C263.968 31.7227 263.909 31.8293 263.792 31.904C263.685 31.968 263.568 32 263.44 32ZM270.862 32C270.777 32 270.686 31.984 270.59 31.952C270.494 31.9093 270.414 31.856 270.35 31.792C270.286 31.7173 270.254 31.6373 270.254 31.552C270.254 31.5093 270.26 31.472 270.27 31.44L273.614 20.592C273.657 20.4533 273.737 20.3573 273.854 20.304C273.972 20.24 274.1 20.208 274.238 20.208C274.388 20.208 274.521 20.24 274.638 20.304C274.766 20.368 274.846 20.464 274.878 20.592L278.206 31.44C278.217 31.472 278.222 31.504 278.222 31.536C278.222 31.6213 278.19 31.7013 278.126 31.776C278.062 31.84 277.982 31.8933 277.886 31.936C277.79 31.9787 277.689 32 277.582 32C277.497 32 277.417 31.9787 277.342 31.936C277.268 31.8933 277.214 31.824 277.182 31.728L276.446 29.264H272.03L271.294 31.728C271.262 31.824 271.209 31.8933 271.134 31.936C271.06 31.9787 270.969 32 270.862 32ZM272.286 28.352H276.174L274.238 21.904L272.286 28.352ZM285.062 32C284.923 32 284.8 31.968 284.694 31.904C284.587 31.8293 284.534 31.7227 284.534 31.584V21.296H281.846C281.718 21.296 281.616 21.248 281.542 21.152C281.467 21.0453 281.43 20.928 281.43 20.8C281.43 20.672 281.467 20.56 281.542 20.464C281.616 20.3573 281.718 20.304 281.846 20.304H288.262C288.4 20.304 288.502 20.3573 288.566 20.464C288.63 20.56 288.662 20.6667 288.662 20.784C288.662 20.912 288.63 21.0293 288.566 21.136C288.502 21.2427 288.4 21.296 288.262 21.296H285.59V31.584C285.59 31.7227 285.531 31.8293 285.414 31.904C285.307 31.968 285.19 32 285.062 32ZM294.158 32C294.041 32 293.929 31.968 293.822 31.904C293.726 31.8293 293.678 31.7227 293.678 31.584V20.72C293.678 20.5813 293.726 20.48 293.822 20.416C293.929 20.3413 294.041 20.304 294.158 20.304H299.854C299.993 20.304 300.094 20.3573 300.158 20.464C300.222 20.56 300.254 20.6667 300.254 20.784C300.254 20.912 300.217 21.0293 300.142 21.136C300.078 21.232 299.982 21.28 299.854 21.28H294.734V25.68H297.246C297.374 25.68 297.47 25.728 297.534 25.824C297.609 25.92 297.646 26.032 297.646 26.16C297.646 26.2667 297.614 26.368 297.55 26.464C297.486 26.56 297.385 26.608 297.246 26.608H294.734V31.024H299.854C299.982 31.024 300.078 31.072 300.142 31.168C300.217 31.264 300.254 31.3813 300.254 31.52C300.254 31.6373 300.222 31.7493 300.158 31.856C300.094 31.952 299.993 32 299.854 32H294.158ZM43.7454 52C43.5214 52 43.3134 51.9467 43.1214 51.84C42.9294 51.7227 42.8334 51.552 42.8334 51.328V40.96C42.8334 40.7253 42.9401 40.56 43.1534 40.464C43.3774 40.3573 43.6174 40.304 43.8734 40.304C44.1401 40.304 44.3801 40.3573 44.5934 40.464C44.8068 40.56 44.9134 40.7253 44.9134 40.96V50.176H48.8334C49.0468 50.176 49.2014 50.272 49.2974 50.464C49.3934 50.6453 49.4414 50.8533 49.4414 51.088C49.4414 51.312 49.3934 51.52 49.2974 51.712C49.2014 51.904 49.0468 52 48.8334 52H43.7454ZM55.2078 52C54.9518 52 54.7118 51.9467 54.4878 51.84C54.2745 51.7227 54.1678 51.552 54.1678 51.328V40.96C54.1678 40.7253 54.2745 40.56 54.4878 40.464C54.7118 40.3573 54.9518 40.304 55.2078 40.304C55.4745 40.304 55.7145 40.3573 55.9278 40.464C56.1411 40.56 56.2478 40.7253 56.2478 40.96V51.328C56.2478 51.552 56.1411 51.7227 55.9278 51.84C55.7145 51.9467 55.4745 52 55.2078 52ZM62.8234 52C62.5674 52 62.3274 51.9467 62.1034 51.84C61.8901 51.7227 61.7834 51.552 61.7834 51.328V40.96C61.7834 40.736 61.8901 40.5707 62.1034 40.464C62.3274 40.3573 62.5674 40.304 62.8234 40.304C63.0794 40.304 63.2874 40.3307 63.4474 40.384C63.6181 40.4373 63.7728 40.544 63.9114 40.704C64.0608 40.8533 64.2154 41.088 64.3754 41.408L67.4634 47.376V40.96C67.4634 40.7253 67.5701 40.56 67.7834 40.464C68.0074 40.3573 68.2474 40.304 68.5034 40.304C68.7701 40.304 69.0101 40.3573 69.2234 40.464C69.4368 40.56 69.5434 40.7253 69.5434 40.96V51.328C69.5434 51.552 69.4368 51.7227 69.2234 51.84C69.0101 51.9467 68.7701 52 68.5034 52C68.2581 52 68.0288 51.952 67.8154 51.856C67.6128 51.76 67.4474 51.5893 67.3194 51.344L63.8634 44.912V51.328C63.8634 51.552 63.7568 51.7227 63.5434 51.84C63.3301 51.9467 63.0901 52 62.8234 52ZM75.9986 52C75.7746 52 75.5666 51.9467 75.3746 51.84C75.1826 51.7227 75.0866 51.552 75.0866 51.328V40.96C75.0866 40.7253 75.1932 40.56 75.4066 40.464C75.6306 40.3573 75.8706 40.304 76.1266 40.304C76.3932 40.304 76.6332 40.3573 76.8466 40.464C77.0599 40.56 77.1666 40.7253 77.1666 40.96V50.176H81.0866C81.2999 50.176 81.4546 50.272 81.5506 50.464C81.6466 50.6453 81.6946 50.8533 81.6946 51.088C81.6946 51.312 81.6466 51.52 81.5506 51.712C81.4546 51.904 81.2999 52 81.0866 52H75.9986ZM87.4609 52C87.2049 52 86.9649 51.9467 86.7409 51.84C86.5276 51.7227 86.4209 51.552 86.4209 51.328V40.96C86.4209 40.7253 86.5276 40.56 86.7409 40.464C86.9649 40.3573 87.2049 40.304 87.4609 40.304C87.7276 40.304 87.9676 40.3573 88.1809 40.464C88.3943 40.56 88.5009 40.7253 88.5009 40.96V51.328C88.5009 51.552 88.3943 51.7227 88.1809 51.84C87.9676 51.9467 87.7276 52 87.4609 52ZM97.2686 52C97.0019 52 96.7619 51.9467 96.5486 51.84C96.3352 51.7227 96.2286 51.552 96.2286 51.328V42.176H93.8766C93.6739 42.176 93.5139 42.08 93.3966 41.888C93.2792 41.696 93.2206 41.4773 93.2206 41.232C93.2206 41.008 93.2739 40.8 93.3806 40.608C93.4872 40.4053 93.6526 40.304 93.8766 40.304H100.645C100.879 40.304 101.045 40.4053 101.141 40.608C101.247 40.8 101.301 41.008 101.301 41.232C101.301 41.4773 101.242 41.696 101.125 41.888C101.018 42.08 100.858 42.176 100.645 42.176H98.3086V51.328C98.3086 51.552 98.1966 51.7227 97.9726 51.84C97.7592 51.9467 97.5246 52 97.2686 52ZM107.052 52C106.796 52 106.556 51.9467 106.332 51.84C106.118 51.7227 106.012 51.552 106.012 51.328V40.96C106.012 40.7253 106.118 40.56 106.332 40.464C106.556 40.3573 106.796 40.304 107.052 40.304C107.318 40.304 107.558 40.3573 107.772 40.464C107.985 40.56 108.092 40.7253 108.092 40.96V45.12H111.692V40.96C111.692 40.7253 111.798 40.56 112.012 40.464C112.236 40.3573 112.476 40.304 112.732 40.304C112.998 40.304 113.238 40.3573 113.452 40.464C113.665 40.56 113.772 40.7253 113.772 40.96V51.328C113.772 51.552 113.665 51.7227 113.452 51.84C113.238 51.9467 112.998 52 112.732 52C112.476 52 112.236 51.9467 112.012 51.84C111.798 51.7227 111.692 51.552 111.692 51.328V46.752H108.092V51.328C108.092 51.552 107.985 51.7227 107.772 51.84C107.558 51.9467 107.318 52 107.052 52ZM122.947 52.096C122.243 52.096 121.608 51.9787 121.043 51.744C120.477 51.4987 120.024 51.1093 119.683 50.576C119.352 50.032 119.187 49.312 119.187 48.416V43.984C119.187 43.088 119.352 42.3733 119.683 41.84C120.024 41.296 120.472 40.9067 121.027 40.672C121.592 40.4267 122.211 40.304 122.883 40.304C123.629 40.304 124.285 40.4267 124.851 40.672C125.427 40.9173 125.88 41.2693 126.211 41.728C126.541 42.1867 126.707 42.736 126.707 43.376C126.707 43.7707 126.621 44.0373 126.451 44.176C126.28 44.304 126.019 44.368 125.667 44.368C125.389 44.368 125.149 44.32 124.947 44.224C124.744 44.128 124.637 43.9573 124.627 43.712C124.616 43.456 124.563 43.2107 124.467 42.976C124.381 42.7307 124.221 42.528 123.987 42.368C123.763 42.208 123.416 42.128 122.947 42.128C122.424 42.128 122.013 42.2827 121.715 42.592C121.427 42.8907 121.283 43.3547 121.283 43.984V48.416C121.283 49.0453 121.427 49.5147 121.715 49.824C122.013 50.1227 122.424 50.272 122.947 50.272C123.469 50.272 123.88 50.1227 124.179 49.824C124.477 49.5147 124.627 49.0453 124.627 48.416V47.488H123.331C123.128 47.488 122.968 47.4027 122.851 47.232C122.744 47.0613 122.691 46.8747 122.691 46.672C122.691 46.4693 122.744 46.2827 122.851 46.112C122.968 45.9413 123.128 45.856 123.331 45.856H126.051C126.264 45.856 126.424 45.9253 126.531 46.064C126.648 46.192 126.707 46.352 126.707 46.544V48.416C126.707 49.312 126.541 50.032 126.211 50.576C125.88 51.1093 125.427 51.4987 124.851 51.744C124.285 51.9787 123.651 52.096 122.947 52.096ZM135.578 52.096C134.874 52.096 134.239 51.9787 133.674 51.744C133.109 51.4987 132.655 51.1093 132.314 50.576C131.983 50.032 131.818 49.312 131.818 48.416V43.984C131.818 43.088 131.983 42.3733 132.314 41.84C132.655 41.296 133.103 40.9067 133.658 40.672C134.223 40.4267 134.863 40.304 135.578 40.304C136.282 40.304 136.917 40.4267 137.482 40.672C138.058 40.9067 138.511 41.296 138.842 41.84C139.173 42.3733 139.338 43.088 139.338 43.984V48.416C139.338 49.312 139.173 50.032 138.842 50.576C138.511 51.1093 138.058 51.4987 137.482 51.744C136.917 51.9787 136.282 52.096 135.578 52.096ZM135.578 50.272C136.101 50.272 136.511 50.1227 136.81 49.824C137.109 49.5253 137.258 49.056 137.258 48.416V43.984C137.258 43.344 137.109 42.8747 136.81 42.576C136.511 42.2773 136.101 42.128 135.578 42.128C135.055 42.128 134.645 42.2773 134.346 42.576C134.058 42.8747 133.914 43.344 133.914 43.984V48.416C133.914 49.056 134.058 49.5253 134.346 49.824C134.645 50.1227 135.055 50.272 135.578 50.272ZM148.461 52.096C148.163 52.096 147.88 52.0373 147.613 51.92C147.347 51.8027 147.176 51.6267 147.101 51.392L143.933 41.328C143.912 41.264 143.901 41.2 143.901 41.136C143.901 40.976 143.971 40.8373 144.109 40.72C144.248 40.592 144.419 40.4907 144.621 40.416C144.835 40.3413 145.037 40.304 145.229 40.304C145.389 40.304 145.533 40.336 145.661 40.4C145.8 40.464 145.885 40.5707 145.917 40.72L148.445 49.392L149.805 43.824C149.859 43.632 149.981 43.488 150.173 43.392C150.376 43.296 150.595 43.248 150.829 43.248C151.064 43.248 151.277 43.296 151.469 43.392C151.672 43.488 151.795 43.632 151.837 43.824L153.197 49.392L155.725 40.72C155.768 40.5707 155.853 40.464 155.981 40.4C156.109 40.336 156.253 40.304 156.413 40.304C156.616 40.304 156.819 40.3413 157.021 40.416C157.224 40.4907 157.395 40.592 157.533 40.72C157.672 40.8373 157.741 40.976 157.741 41.136C157.741 41.2 157.731 41.264 157.709 41.328L154.541 51.392C154.456 51.6267 154.285 51.8027 154.029 51.92C153.773 52.0373 153.491 52.096 153.181 52.096C152.883 52.096 152.6 52.0373 152.333 51.92C152.067 51.8027 151.907 51.6267 151.853 51.392L150.829 47.072L149.789 51.392C149.736 51.6267 149.576 51.8027 149.309 51.92C149.043 52.0373 148.76 52.096 148.461 52.096ZM170.142 52C169.918 52 169.71 51.9467 169.518 51.84C169.326 51.7227 169.23 51.552 169.23 51.328V40.976C169.23 40.752 169.326 40.5867 169.518 40.48C169.71 40.3627 169.918 40.304 170.142 40.304H175.838C176.073 40.304 176.238 40.4 176.334 40.592C176.441 40.784 176.494 40.9867 176.494 41.2C176.494 41.456 176.436 41.6747 176.318 41.856C176.212 42.0373 176.052 42.128 175.838 42.128H171.31V45.328H173.742C173.956 45.328 174.116 45.4133 174.222 45.584C174.34 45.744 174.398 45.936 174.398 46.16C174.398 46.3413 174.345 46.5227 174.238 46.704C174.142 46.8747 173.977 46.96 173.742 46.96H171.31V50.176H175.838C176.052 50.176 176.212 50.2667 176.318 50.448C176.436 50.6293 176.494 50.848 176.494 51.104C176.494 51.3173 176.441 51.52 176.334 51.712C176.238 51.904 176.073 52 175.838 52H170.142ZM182.355 52C182.099 52 181.859 51.9467 181.635 51.84C181.421 51.7227 181.315 51.552 181.315 51.328V40.96C181.315 40.7253 181.421 40.56 181.635 40.464C181.859 40.3573 182.099 40.304 182.355 40.304C182.621 40.304 182.861 40.3573 183.075 40.464C183.288 40.56 183.395 40.7253 183.395 40.96V45.12H186.995V40.96C186.995 40.7253 187.101 40.56 187.315 40.464C187.539 40.3573 187.779 40.304 188.035 40.304C188.301 40.304 188.541 40.3573 188.755 40.464C188.968 40.56 189.075 40.7253 189.075 40.96V51.328C189.075 51.552 188.968 51.7227 188.755 51.84C188.541 51.9467 188.301 52 188.035 52C187.779 52 187.539 51.9467 187.315 51.84C187.101 51.7227 186.995 51.552 186.995 51.328V46.752H183.395V51.328C183.395 51.552 183.288 51.7227 183.075 51.84C182.861 51.9467 182.621 52 182.355 52ZM199.226 52C198.97 52 198.73 51.9467 198.506 51.84C198.292 51.7227 198.186 51.552 198.186 51.328V49.456H194.346C194.143 49.456 193.972 49.392 193.834 49.264C193.695 49.1253 193.626 48.944 193.626 48.72C193.626 48.656 193.636 48.5867 193.658 48.512C193.679 48.4373 193.706 48.3627 193.738 48.288L197.53 40.848C197.626 40.6453 197.754 40.5067 197.914 40.432C198.074 40.3467 198.239 40.304 198.41 40.304C198.538 40.304 198.682 40.336 198.842 40.4C199.002 40.464 199.14 40.56 199.258 40.688C199.386 40.8053 199.45 40.944 199.45 41.104C199.45 41.168 199.423 41.2587 199.37 41.376L196.298 47.52H198.186V45.84C198.186 45.6053 198.292 45.44 198.506 45.344C198.73 45.2373 198.97 45.184 199.226 45.184C199.482 45.184 199.716 45.2373 199.93 45.344C200.154 45.44 200.266 45.6053 200.266 45.84V47.52H201.002C201.226 47.52 201.391 47.6213 201.498 47.824C201.615 48.0267 201.674 48.2453 201.674 48.48C201.674 48.7253 201.604 48.9493 201.466 49.152C201.327 49.3547 201.172 49.456 201.002 49.456H200.266V51.328C200.266 51.552 200.154 51.7227 199.93 51.84C199.716 51.9467 199.482 52 199.226 52ZM209.513 52.096C208.873 52.096 208.324 52.0107 207.865 51.84C207.406 51.6587 207.028 51.424 206.729 51.136C206.43 50.848 206.212 50.5333 206.073 50.192C205.934 49.84 205.865 49.4987 205.865 49.168C205.865 48.8373 205.945 48.6133 206.105 48.496C206.276 48.368 206.521 48.304 206.841 48.304C207.129 48.304 207.38 48.3573 207.593 48.464C207.817 48.56 207.929 48.768 207.929 49.088C207.929 49.3333 208.004 49.5467 208.153 49.728C208.302 49.8987 208.5 50.032 208.745 50.128C208.99 50.224 209.268 50.272 209.577 50.272C210.11 50.272 210.532 50.1227 210.841 49.824C211.15 49.5253 211.305 49.056 211.305 48.416V46.688C211.038 46.9973 210.718 47.2107 210.345 47.328C209.982 47.4453 209.593 47.504 209.177 47.504C208.569 47.504 208.014 47.4027 207.513 47.2C207.012 46.9973 206.612 46.656 206.313 46.176C206.014 45.696 205.865 45.0347 205.865 44.192V43.984C205.865 43.088 206.03 42.3733 206.361 41.84C206.692 41.296 207.14 40.9067 207.705 40.672C208.27 40.4267 208.905 40.304 209.609 40.304C210.313 40.304 210.948 40.4267 211.513 40.672C212.089 40.9067 212.542 41.296 212.873 41.84C213.214 42.3733 213.385 43.088 213.385 43.984V48.416C213.385 49.312 213.209 50.032 212.857 50.576C212.516 51.1093 212.052 51.4987 211.465 51.744C210.889 51.9787 210.238 52.096 209.513 52.096ZM209.625 45.872C210.137 45.872 210.542 45.744 210.841 45.488C211.15 45.2213 211.305 44.7893 211.305 44.192V43.84C211.305 43.2 211.156 42.736 210.857 42.448C210.558 42.16 210.142 42.016 209.609 42.016C209.086 42.016 208.676 42.16 208.377 42.448C208.089 42.736 207.945 43.2 207.945 43.84V44.048C207.945 44.7093 208.089 45.1787 208.377 45.456C208.676 45.7333 209.092 45.872 209.625 45.872ZM227.209 52.08C227.006 52.08 226.798 52.0373 226.585 51.952C226.382 51.856 226.217 51.728 226.089 51.568C225.972 51.408 225.913 51.232 225.913 51.04C225.913 50.912 225.945 50.7893 226.009 50.672L230.185 43.184V42.128H226.841V43.424C226.841 43.6053 226.734 43.7653 226.521 43.904C226.308 44.032 226.062 44.096 225.785 44.096C225.508 44.096 225.268 44.032 225.065 43.904C224.862 43.7653 224.761 43.6053 224.761 43.424V40.976C224.761 40.8053 224.857 40.6507 225.049 40.512C225.241 40.3733 225.449 40.304 225.673 40.304H231.353C231.556 40.304 231.758 40.3733 231.961 40.512C232.164 40.6507 232.265 40.8053 232.265 40.976V42.784C232.265 42.944 232.222 43.1413 232.137 43.376C232.052 43.6 231.956 43.808 231.849 44L227.817 51.776C227.71 51.9787 227.508 52.08 227.209 52.08ZM237.914 52C237.637 52 237.413 51.936 237.242 51.808C237.082 51.68 237.002 51.5253 237.002 51.344V40.96C237.002 40.7787 237.082 40.624 237.242 40.496C237.413 40.368 237.637 40.304 237.914 40.304H240.746C241.461 40.304 242.101 40.4267 242.666 40.672C243.232 40.9067 243.68 41.296 244.01 41.84C244.352 42.3733 244.522 43.088 244.522 43.984V48.32C244.522 49.216 244.352 49.936 244.01 50.48C243.68 51.0133 243.232 51.4027 242.666 51.648C242.101 51.8827 241.461 52 240.746 52H237.914ZM239.082 50.176H240.746C241.28 50.176 241.696 50.0267 241.994 49.728C242.293 49.4187 242.442 48.9493 242.442 48.32V43.984C242.442 43.3547 242.293 42.8907 241.994 42.592C241.696 42.2827 241.285 42.128 240.762 42.128H239.082V50.176ZM250.395 52C250.203 52 250.006 51.9627 249.803 51.888C249.6 51.8133 249.43 51.712 249.291 51.584C249.152 51.456 249.083 51.3067 249.083 51.136C249.083 51.104 249.088 51.0507 249.099 50.976L252.187 40.912C252.262 40.6773 252.427 40.5013 252.683 40.384C252.95 40.2667 253.232 40.208 253.531 40.208C253.84 40.208 254.123 40.2667 254.379 40.384C254.635 40.5013 254.8 40.6773 254.875 40.912L257.963 50.976C257.984 51.0507 257.995 51.104 257.995 51.136C257.995 51.296 257.92 51.4453 257.771 51.584C257.632 51.712 257.462 51.8133 257.259 51.888C257.056 51.9627 256.859 52 256.667 52C256.496 52 256.347 51.9733 256.219 51.92C256.102 51.856 256.022 51.744 255.979 51.584L255.371 49.456H251.691L251.099 51.584C251.056 51.744 250.971 51.856 250.843 51.92C250.715 51.9733 250.566 52 250.395 52ZM252.139 47.824H254.923L253.531 42.912L252.139 47.824Z" fill="white"/>
</svg>
