<svg xmlns="http://www.w3.org/2000/svg" xmlns:xlink="http://www.w3.org/1999/xlink" width="700pt" height="700pt" version="1.1" viewBox="0 0 700 700">
    <g>
        <path d="m509.44 358.24c34.324 19.074 68.668 38.152 102.99 57.227 14.773 8.2031 21.254 25.609 15.438 41.484-29.531 80.676-116.02 123.26-197.4 93.559-166.64-60.824-290.16-184.35-350.99-350.99-29.703-81.379 12.883-167.87 93.559-197.4 15.875-5.8164 33.281 0.66406 41.504 15.438 19.055 34.324 38.133 68.668 57.207 102.99 8.9414 16.102 6.8398 35.215-5.3984 48.965-16.027 18.035-32.051 36.066-48.078 54.082 34.211 83.309 104.81 153.91 188.12 188.12 18.016-16.027 36.047-32.051 54.082-48.078 13.77-12.238 32.867-14.34 48.965-5.3984z" fill-rule="evenodd"/>
    </g>
</svg>
