<svg width="721" height="102" viewBox="0 0 721 102" fill="none" xmlns="http://www.w3.org/2000/svg">
    <path d="M75.5185 46H60.5425L59.6465 35.824H47.8065L43.2625 46H37.0545L55.9345 5.36H71.1025L75.5185 46ZM49.9185 31.152H59.1985L57.7265 13.744L49.9185 31.152ZM83.7465 18.48H94.1785L95.1385 23.28H95.5865C96.5678 21.744 97.8265 20.4427 99.3625 19.376C100.899 18.3093 102.925 17.776 105.443 17.776C105.613 17.776 105.869 17.7973 106.211 17.84C106.595 17.84 107 17.904 107.427 18.032C107.896 18.1173 108.365 18.2667 108.835 18.48C109.347 18.6507 109.837 18.9067 110.307 19.248L107.491 32.432H100.515C100.429 29.7867 100.195 27.952 99.8105 26.928C99.4265 25.8613 98.8078 25.328 97.9545 25.328C97.5278 25.328 97.0585 25.4347 96.5465 25.648C96.0772 25.8187 95.5865 26.224 95.0745 26.864L90.9785 46H77.9225L83.7465 18.48ZM137.916 44.464C136.124 45.1893 134.225 45.7013 132.22 46C130.257 46.3413 128.017 46.512 125.5 46.512C123.281 46.512 121.233 46.2987 119.356 45.872C117.521 45.4027 115.921 44.6773 114.556 43.696C113.191 42.7147 112.124 41.456 111.356 39.92C110.588 38.3413 110.204 36.4427 110.204 34.224C110.204 31.92 110.588 29.7867 111.356 27.824C112.167 25.8187 113.361 24.0693 114.94 22.576C116.561 21.0827 118.609 19.9093 121.084 19.056C123.559 18.2027 126.503 17.776 129.916 17.776C132.689 17.776 135.1 18.0107 137.148 18.48C139.196 18.9067 140.881 19.9093 142.204 21.488L140.412 29.68H131.708C131.751 28.9547 131.793 28.3147 131.836 27.76C131.879 27.2053 131.9 26.5867 131.9 25.904C131.9 24.5387 131.751 23.5787 131.452 23.024C131.153 22.4267 130.663 22.128 129.98 22.128C128.785 22.128 127.74 22.7253 126.844 23.92C125.948 25.072 125.201 26.48 124.604 28.144C124.049 29.7653 123.623 31.4933 123.324 33.328C123.068 35.12 122.94 36.656 122.94 37.936C122.94 38.4053 122.961 38.896 123.004 39.408C123.047 39.8773 123.132 40.3253 123.26 40.752C123.431 41.1787 123.644 41.52 123.9 41.776C124.156 42.032 124.519 42.16 124.988 42.16C125.415 42.16 125.905 42.032 126.46 41.776C127.015 41.52 127.548 41.136 128.06 40.624C128.572 40.0693 129.063 39.3653 129.532 38.512C130.001 37.6587 130.364 36.6347 130.62 35.44H139.772L137.916 44.464ZM160.283 22.576H160.731C161.542 21.7653 162.48 21.0187 163.547 20.336C164.443 19.7387 165.51 19.2053 166.747 18.736C167.984 18.2667 169.371 18.032 170.907 18.032C173.126 18.032 174.96 18.608 176.411 19.76C177.862 20.8693 178.587 22.4053 178.587 24.368C178.587 24.9653 178.523 25.648 178.395 26.416C178.267 27.1413 178.118 27.9307 177.947 28.784C177.776 29.5947 177.584 30.4267 177.371 31.28C177.2 32.0907 177.051 32.8373 176.923 33.52L174.235 46H161.243L164.763 29.296C164.848 28.7413 164.955 28.1867 165.083 27.632C165.211 27.0347 165.275 26.5013 165.275 26.032C165.275 25.392 165.104 24.88 164.763 24.496C164.464 24.0693 163.995 23.856 163.355 23.856C162.587 23.856 161.84 24.1333 161.115 24.688C160.432 25.2427 159.899 25.7333 159.515 26.16L155.291 46H142.235L151.323 2.992H164.443L160.283 22.576ZM184.983 20.848C187.159 19.7813 189.378 19.0133 191.639 18.544C193.943 18.032 196.503 17.776 199.319 17.776C202.05 17.776 204.311 17.9893 206.103 18.416C207.895 18.8427 209.324 19.4613 210.391 20.272C211.458 21.0827 212.204 22.0427 212.631 23.152C213.058 24.2613 213.271 25.52 213.271 26.928C213.271 27.7387 213.207 28.6133 213.079 29.552C212.994 30.4907 212.887 31.28 212.759 31.92L209.751 46H199.447L198.295 41.904H197.911C196.546 43.3973 194.946 44.5493 193.111 45.36C191.319 46.128 189.527 46.512 187.735 46.512C186.711 46.512 185.708 46.3627 184.727 46.064C183.746 45.7653 182.871 45.3173 182.103 44.72C181.335 44.08 180.716 43.2907 180.247 42.352C179.778 41.3707 179.543 40.1973 179.543 38.832C179.543 36.6133 180.14 34.864 181.335 33.584C182.572 32.2613 184.172 31.28 186.135 30.64C188.14 29.9573 190.38 29.5307 192.855 29.36C195.372 29.1893 197.89 29.104 200.407 29.104C200.492 28.6773 200.599 28.08 200.727 27.312C200.855 26.5013 200.919 25.7973 200.919 25.2C200.919 24.432 200.706 23.728 200.279 23.088C199.895 22.4053 199.063 22.064 197.783 22.064C196.29 22.064 195.18 22.512 194.455 23.408C193.772 24.2613 193.324 25.3067 193.111 26.544H183.767L184.983 20.848ZM199.703 32.112H198.551C197.314 32.112 196.247 32.2827 195.351 32.624C194.498 32.9227 193.794 33.328 193.239 33.84C192.727 34.352 192.343 34.928 192.087 35.568C191.831 36.208 191.703 36.848 191.703 37.488C191.703 38.512 191.959 39.28 192.471 39.792C193.026 40.304 193.666 40.56 194.391 40.56C195.287 40.56 196.162 40.24 197.015 39.6C197.911 38.96 198.466 38.1067 198.679 37.04L199.703 32.112ZM232.84 22.576C233.736 21.7227 234.738 20.9333 235.848 20.208C236.829 19.6107 237.981 19.056 239.304 18.544C240.626 18.032 242.098 17.776 243.72 17.776C245.938 17.776 247.773 18.352 249.224 19.504C250.674 20.6133 251.4 22.1493 251.4 24.112C251.4 24.6667 251.336 25.3493 251.208 26.16C251.08 26.928 250.93 27.7387 250.76 28.592C250.589 29.4453 250.397 30.32 250.184 31.216C250.013 32.0693 249.864 32.8373 249.736 33.52L247.048 46H234.056L237.576 29.296C237.661 28.7413 237.768 28.1867 237.896 27.632C238.024 27.0347 238.088 26.5013 238.088 26.032C238.088 25.392 237.917 24.88 237.576 24.496C237.277 24.0693 236.808 23.856 236.168 23.856C235.4 23.856 234.653 24.1333 233.928 24.688C233.245 25.2427 232.712 25.712 232.328 26.096L228.104 46H215.047L220.872 18.48H231.304L232.456 22.576H232.84ZM279.3 18.48H289.668L284.42 43.376C284.036 45.296 283.396 47.0667 282.5 48.688C281.604 50.3093 280.345 51.7173 278.724 52.912C277.145 54.1067 275.14 55.0453 272.708 55.728C270.318 56.4107 267.396 56.752 263.94 56.752C263.3 56.752 262.532 56.7307 261.635 56.688C260.74 56.688 259.822 56.6667 258.884 56.624C257.945 56.624 257.049 56.6027 256.196 56.56C255.342 56.5173 254.66 56.4747 254.148 56.432L255.364 51.824C256.729 52.0373 258.116 52.144 259.524 52.144C260.974 52.1867 262.212 52.208 263.236 52.208C264.516 52.208 265.582 52.08 266.436 51.824C267.332 51.6107 268.057 51.248 268.612 50.736C269.209 50.224 269.678 49.5413 270.02 48.688C270.404 47.8347 270.702 46.7893 270.916 45.552L271.684 41.392H271.236C270.98 41.776 270.596 42.2453 270.083 42.8C269.614 43.312 268.996 43.824 268.228 44.336C267.46 44.8053 266.542 45.2107 265.476 45.552C264.452 45.8507 263.278 46 261.956 46C260.462 46 259.182 45.7867 258.116 45.36C257.092 44.8907 256.26 44.272 255.62 43.504C254.98 42.6933 254.51 41.7547 254.212 40.688C253.913 39.5787 253.764 38.384 253.764 37.104C253.764 36.5493 253.806 35.696 253.892 34.544C253.977 33.392 254.169 32.0907 254.468 30.64C254.809 29.1893 255.278 27.7173 255.876 26.224C256.516 24.688 257.348 23.3013 258.372 22.064C259.438 20.8267 260.74 19.8027 262.276 18.992C263.854 18.1813 265.753 17.776 267.972 17.776C268.654 17.776 269.401 17.84 270.212 17.968C271.022 18.096 271.812 18.3307 272.58 18.672C273.348 19.0133 274.03 19.504 274.628 20.144C275.225 20.784 275.694 21.616 276.036 22.64H276.42L279.3 18.48ZM272.132 24.048C271.108 24.048 270.254 24.6027 269.572 25.712C268.889 26.7787 268.334 28.0373 267.908 29.488C267.481 30.9387 267.161 32.3893 266.948 33.84C266.777 35.248 266.692 36.2933 266.692 36.976C266.692 37.8293 266.82 38.5547 267.076 39.152C267.374 39.7067 267.886 39.984 268.612 39.984C269.038 39.984 269.444 39.8773 269.828 39.664C270.254 39.4507 270.638 39.216 270.98 38.96C271.364 38.6613 271.684 38.3627 271.94 38.064C272.238 37.7653 272.452 37.5307 272.58 37.36L274.948 26.16C274.606 25.6907 274.201 25.2213 273.732 24.752C273.305 24.2827 272.772 24.048 272.132 24.048ZM304.14 33.136C303.969 34.0747 303.841 34.9707 303.756 35.824C303.713 36.6773 303.692 37.4453 303.692 38.128C303.692 38.512 303.713 38.9387 303.756 39.408C303.798 39.8773 303.884 40.3253 304.012 40.752C304.182 41.136 304.396 41.4773 304.652 41.776C304.95 42.032 305.356 42.16 305.868 42.16C306.252 42.16 306.678 42.032 307.148 41.776C307.66 41.52 308.15 41.1573 308.62 40.688C309.132 40.2187 309.601 39.6427 310.028 38.96C310.497 38.2773 310.86 37.5093 311.116 36.656H321.612L319.948 43.504C319.094 44.0587 318.113 44.528 317.004 44.912C315.894 45.296 314.721 45.616 313.484 45.872C312.246 46.0853 310.988 46.2347 309.708 46.32C308.428 46.448 307.212 46.512 306.06 46.512C303.926 46.512 301.942 46.32 300.108 45.936C298.273 45.552 296.673 44.8907 295.308 43.952C293.942 43.0133 292.854 41.776 292.044 40.24C291.276 38.6613 290.892 36.72 290.892 34.416C290.892 32.3253 291.212 30.2773 291.852 28.272C292.534 26.2667 293.644 24.496 295.18 22.96C296.758 21.3813 298.849 20.1227 301.452 19.184C304.097 18.2453 307.382 17.776 311.308 17.776C315.574 17.776 318.774 18.4373 320.908 19.76C323.084 21.0827 324.172 23.152 324.172 25.968C324.172 27.12 324.001 28.3787 323.66 29.744C323.318 31.0667 322.806 32.1973 322.124 33.136H304.14ZM312.652 25.52C312.652 24.1973 312.438 23.3013 312.012 22.832C311.585 22.3627 311.073 22.128 310.476 22.128C309.793 22.128 309.153 22.3627 308.556 22.832C308.001 23.2587 307.489 23.856 307.02 24.624C306.55 25.3493 306.124 26.2027 305.74 27.184C305.356 28.1227 305.036 29.1253 304.78 30.192H312.076C312.161 29.68 312.246 29.1467 312.332 28.592C312.417 28.1227 312.481 27.6107 312.524 27.056C312.609 26.5013 312.652 25.9893 312.652 25.52ZM337.604 46H324.547L333.635 2.992H346.756L337.604 46ZM381.404 17.136C381.532 16.496 381.596 15.6213 381.596 14.512C381.596 13.872 381.553 13.2533 381.468 12.656C381.382 12.016 381.233 11.4613 381.02 10.992C380.806 10.48 380.486 10.096 380.06 9.84C379.633 9.54133 379.078 9.392 378.396 9.392C377.628 9.392 376.924 9.56267 376.284 9.904C375.644 10.2453 375.068 10.6933 374.556 11.248C374.086 11.76 373.702 12.3787 373.404 13.104C373.148 13.7867 373.02 14.512 373.02 15.28C373.02 16.3893 373.297 17.2427 373.852 17.84C374.449 18.4373 375.217 18.928 376.156 19.312C377.094 19.696 378.161 20.016 379.356 20.272C380.55 20.528 381.788 20.8267 383.068 21.168C384.134 21.4667 385.201 21.8507 386.268 22.32C387.334 22.7893 388.273 23.4293 389.083 24.24C389.937 25.008 390.62 26.032 391.132 27.312C391.644 28.5493 391.9 30.1067 391.9 31.984C391.9 34.672 391.366 36.9333 390.3 38.768C389.233 40.6027 387.761 42.096 385.884 43.248C384.006 44.4 381.766 45.232 379.164 45.744C376.604 46.256 373.809 46.512 370.78 46.512C367.708 46.512 365.19 46.32 363.228 45.936C361.308 45.5093 359.793 45.0613 358.684 44.592C357.361 44.0373 356.38 43.3973 355.739 42.672L357.916 33.904H369.18C369.137 34.288 369.094 34.8213 369.052 35.504C369.009 36.144 368.988 36.656 368.988 37.04C368.988 37.552 369.052 38.0853 369.18 38.64C369.308 39.1947 369.5 39.7067 369.756 40.176C370.054 40.6453 370.46 41.0293 370.972 41.328C371.484 41.6267 372.124 41.776 372.892 41.776C373.745 41.776 374.492 41.584 375.132 41.2C375.814 40.816 376.369 40.3467 376.796 39.792C377.265 39.1947 377.606 38.5547 377.82 37.872C378.076 37.1467 378.204 36.4427 378.204 35.76C378.204 34.8213 377.969 34.032 377.5 33.392C377.073 32.752 376.476 32.2187 375.708 31.792C374.94 31.3227 374.044 30.9387 373.02 30.64C372.038 30.2987 371.014 29.9573 369.948 29.616C368.924 29.3173 367.836 28.9547 366.684 28.528C365.574 28.1013 364.55 27.504 363.612 26.736C362.673 25.968 361.884 25.008 361.244 23.856C360.646 22.6613 360.348 21.1467 360.348 19.312C360.348 16.5813 361.03 14.2987 362.396 12.464C363.804 10.5867 365.553 9.072 367.644 7.92C369.777 6.768 372.102 5.95733 374.62 5.488C377.137 4.976 379.526 4.72 381.788 4.72C384.774 4.72 387.334 5.08266 389.468 5.808C391.644 6.49066 393.286 7.30133 394.396 8.24L392.028 17.136H381.404ZM403.862 56.752H390.806L398.87 18.48H409.302L410.454 22.576H410.838C412.374 20.9547 414.081 19.8027 415.958 19.12C417.878 18.3947 419.755 18.032 421.59 18.032C423.083 18.032 424.321 18.2667 425.302 18.736C426.326 19.1627 427.137 19.76 427.734 20.528C428.331 21.296 428.758 22.2133 429.014 23.28C429.27 24.3467 429.398 25.4773 429.398 26.672C429.398 27.2693 429.355 28.1653 429.27 29.36C429.185 30.5547 428.993 31.8987 428.694 33.392C428.395 34.8427 427.969 36.3573 427.414 37.936C426.859 39.472 426.113 40.88 425.174 42.16C424.278 43.44 423.126 44.4853 421.718 45.296C420.353 46.1067 418.71 46.512 416.79 46.512C415.723 46.512 414.678 46.384 413.654 46.128C412.673 45.872 411.777 45.5307 410.966 45.104C410.155 44.6773 409.43 44.1867 408.79 43.632C408.193 43.0347 407.745 42.4373 407.446 41.84H407.062L403.862 56.752ZM410.646 40.304C411.67 40.304 412.523 39.7707 413.206 38.704C413.889 37.5947 414.443 36.3147 414.87 34.864C415.297 33.3707 415.595 31.8987 415.766 30.448C415.979 28.9547 416.086 27.8453 416.086 27.12C416.086 26.2667 415.937 25.5627 415.638 25.008C415.382 24.4533 414.891 24.176 414.166 24.176C413.355 24.176 412.587 24.4747 411.862 25.072C411.137 25.6267 410.603 26.1173 410.262 26.544L407.766 38.256C408.107 38.7253 408.513 39.1947 408.982 39.664C409.451 40.0907 410.006 40.304 410.646 40.304ZM445.077 33.136C444.906 34.0747 444.778 34.9707 444.693 35.824C444.65 36.6773 444.629 37.4453 444.629 38.128C444.629 38.512 444.65 38.9387 444.693 39.408C444.736 39.8773 444.821 40.3253 444.949 40.752C445.12 41.136 445.333 41.4773 445.589 41.776C445.888 42.032 446.293 42.16 446.805 42.16C447.189 42.16 447.616 42.032 448.085 41.776C448.597 41.52 449.088 41.1573 449.557 40.688C450.069 40.2187 450.538 39.6427 450.965 38.96C451.434 38.2773 451.797 37.5093 452.053 36.656H462.549L460.885 43.504C460.032 44.0587 459.05 44.528 457.941 44.912C456.832 45.296 455.658 45.616 454.421 45.872C453.184 46.0853 451.925 46.2347 450.645 46.32C449.365 46.448 448.149 46.512 446.997 46.512C444.864 46.512 442.88 46.32 441.045 45.936C439.21 45.552 437.61 44.8907 436.245 43.952C434.88 43.0133 433.792 41.776 432.981 40.24C432.213 38.6613 431.829 36.72 431.829 34.416C431.829 32.3253 432.149 30.2773 432.789 28.272C433.472 26.2667 434.581 24.496 436.117 22.96C437.696 21.3813 439.786 20.1227 442.389 19.184C445.034 18.2453 448.32 17.776 452.245 17.776C456.512 17.776 459.712 18.4373 461.845 19.76C464.021 21.0827 465.109 23.152 465.109 25.968C465.109 27.12 464.938 28.3787 464.597 29.744C464.256 31.0667 463.744 32.1973 463.061 33.136H445.077ZM453.589 25.52C453.589 24.1973 453.376 23.3013 452.949 22.832C452.522 22.3627 452.01 22.128 451.413 22.128C450.73 22.128 450.09 22.3627 449.493 22.832C448.938 23.2587 448.426 23.856 447.957 24.624C447.488 25.3493 447.061 26.2027 446.677 27.184C446.293 28.1227 445.973 29.1253 445.717 30.192H453.013C453.098 29.68 453.184 29.1467 453.269 28.592C453.354 28.1227 453.418 27.6107 453.461 27.056C453.546 26.5013 453.589 25.9893 453.589 25.52ZM480.077 33.136C479.906 34.0747 479.778 34.9707 479.693 35.824C479.65 36.6773 479.629 37.4453 479.629 38.128C479.629 38.512 479.65 38.9387 479.693 39.408C479.736 39.8773 479.821 40.3253 479.949 40.752C480.12 41.136 480.333 41.4773 480.589 41.776C480.888 42.032 481.293 42.16 481.805 42.16C482.189 42.16 482.616 42.032 483.085 41.776C483.597 41.52 484.088 41.1573 484.557 40.688C485.069 40.2187 485.538 39.6427 485.965 38.96C486.434 38.2773 486.797 37.5093 487.053 36.656H497.549L495.885 43.504C495.032 44.0587 494.05 44.528 492.941 44.912C491.832 45.296 490.658 45.616 489.421 45.872C488.184 46.0853 486.925 46.2347 485.645 46.32C484.365 46.448 483.149 46.512 481.997 46.512C479.864 46.512 477.88 46.32 476.045 45.936C474.21 45.552 472.61 44.8907 471.245 43.952C469.88 43.0133 468.792 41.776 467.981 40.24C467.213 38.6613 466.829 36.72 466.829 34.416C466.829 32.3253 467.149 30.2773 467.789 28.272C468.472 26.2667 469.581 24.496 471.117 22.96C472.696 21.3813 474.786 20.1227 477.389 19.184C480.034 18.2453 483.32 17.776 487.245 17.776C491.512 17.776 494.712 18.4373 496.845 19.76C499.021 21.0827 500.109 23.152 500.109 25.968C500.109 27.12 499.938 28.3787 499.597 29.744C499.256 31.0667 498.744 32.1973 498.061 33.136H480.077ZM488.589 25.52C488.589 24.1973 488.376 23.3013 487.949 22.832C487.522 22.3627 487.01 22.128 486.413 22.128C485.73 22.128 485.09 22.3627 484.493 22.832C483.938 23.2587 483.426 23.856 482.957 24.624C482.488 25.3493 482.061 26.2027 481.677 27.184C481.293 28.1227 480.973 29.1253 480.717 30.192H488.013C488.098 29.68 488.184 29.1467 488.269 28.592C488.354 28.1227 488.418 27.6107 488.461 27.056C488.546 26.5013 488.589 25.9893 488.589 25.52ZM527.749 2.992H540.869L531.717 46H521.349L520.197 41.904H519.749C519.493 42.288 519.088 42.7573 518.533 43.312C518.021 43.824 517.36 44.336 516.549 44.848C515.738 45.3173 514.778 45.7013 513.669 46C512.56 46.3413 511.28 46.512 509.829 46.512C508.336 46.512 507.056 46.2987 505.989 45.872C504.965 45.4027 504.112 44.784 503.429 44.016C502.789 43.248 502.32 42.3307 502.021 41.264C501.722 40.1547 501.573 38.96 501.573 37.68C501.573 37.1253 501.616 36.2507 501.701 35.056C501.786 33.8187 501.978 32.4747 502.277 31.024C502.618 29.5307 503.088 28.016 503.685 26.48C504.325 24.9013 505.157 23.472 506.181 22.192C507.248 20.912 508.549 19.8667 510.085 19.056C511.621 18.2027 513.477 17.776 515.653 17.776C516.336 17.776 517.061 17.84 517.829 17.968C518.597 18.096 519.322 18.3307 520.005 18.672C520.73 19.0133 521.37 19.504 521.925 20.144C522.48 20.784 522.885 21.616 523.141 22.64H523.589L527.749 2.992ZM519.941 24.048C518.917 24.048 518.064 24.624 517.381 25.776C516.698 26.8853 516.144 28.1867 515.717 29.68C515.29 31.1733 514.97 32.6667 514.757 34.16C514.586 35.6533 514.501 36.7627 514.501 37.488C514.501 38.3413 514.629 39.0667 514.885 39.664C515.141 40.2187 515.632 40.496 516.357 40.496C516.784 40.496 517.189 40.4107 517.573 40.24C518 40.0267 518.384 39.792 518.725 39.536C519.109 39.2373 519.429 38.9387 519.685 38.64C519.941 38.3413 520.154 38.0853 520.325 37.872L522.821 26.224C522.522 25.7547 522.117 25.2853 521.605 24.816C521.136 24.304 520.581 24.048 519.941 24.048ZM557.711 26.544C557.753 26.3307 557.796 26.1173 557.839 25.904C557.881 25.6907 557.903 25.456 557.903 25.2C557.903 24.432 557.753 23.728 557.455 23.088C557.199 22.4053 556.665 22.064 555.855 22.064C555.129 22.064 554.404 22.384 553.679 23.024C552.953 23.6213 552.591 24.432 552.591 25.456C552.591 26.1387 552.761 26.6933 553.103 27.12C553.487 27.504 553.977 27.824 554.575 28.08C555.172 28.336 555.833 28.5493 556.559 28.72C557.327 28.8907 558.073 29.0613 558.799 29.232C559.823 29.488 560.783 29.808 561.679 30.192C562.617 30.5333 563.449 31.0027 564.175 31.6C564.9 32.1973 565.476 32.944 565.903 33.84C566.329 34.6933 566.543 35.76 566.543 37.04C566.543 38.832 566.116 40.3467 565.263 41.584C564.452 42.7787 563.3 43.76 561.807 44.528C560.356 45.2533 558.628 45.7653 556.623 46.064C554.66 46.3627 552.548 46.512 550.287 46.512C546.831 46.512 543.972 46.256 541.711 45.744C539.449 45.232 537.87 44.7413 536.974 44.272L538.319 37.872H546.959C546.916 38.0853 546.895 38.2987 546.895 38.512C546.895 38.6827 546.895 38.8747 546.895 39.088C546.895 40.0693 547.108 40.8587 547.535 41.456C548.004 42.0107 548.793 42.288 549.903 42.288C551.14 42.288 552.015 41.9467 552.527 41.264C553.081 40.5387 553.359 39.8773 553.359 39.28C553.359 38.6827 553.124 38.1707 552.655 37.744C552.228 37.2747 551.673 36.8907 550.991 36.592C550.308 36.2507 549.54 35.9733 548.687 35.76C547.876 35.504 547.087 35.2693 546.319 35.056C545.764 34.928 545.124 34.7147 544.399 34.416C543.716 34.1173 543.055 33.6907 542.415 33.136C541.775 32.5813 541.241 31.8773 540.815 31.024C540.388 30.128 540.174 29.0187 540.174 27.696C540.174 25.8187 540.623 24.2613 541.519 23.024C542.457 21.744 543.652 20.72 545.103 19.952C546.596 19.184 548.26 18.6293 550.095 18.288C551.972 17.9467 553.849 17.776 555.727 17.776C558.073 17.776 560.292 17.9893 562.383 18.416C564.473 18.8427 566.18 19.3973 567.503 20.08L566.031 26.544H557.711ZM586.658 22.576H587.106C587.917 21.7653 588.855 21.0187 589.922 20.336C590.818 19.7387 591.885 19.2053 593.122 18.736C594.359 18.2667 595.746 18.032 597.282 18.032C599.501 18.032 601.335 18.608 602.786 19.76C604.237 20.8693 604.962 22.4053 604.962 24.368C604.962 24.9653 604.898 25.648 604.77 26.416C604.642 27.1413 604.493 27.9307 604.322 28.784C604.151 29.5947 603.959 30.4267 603.746 31.28C603.575 32.0907 603.426 32.8373 603.298 33.52L600.61 46H587.618L591.138 29.296C591.223 28.7413 591.33 28.1867 591.458 27.632C591.586 27.0347 591.65 26.5013 591.65 26.032C591.65 25.392 591.479 24.88 591.138 24.496C590.839 24.0693 590.37 23.856 589.73 23.856C588.962 23.856 588.215 24.1333 587.49 24.688C586.807 25.2427 586.274 25.7333 585.89 26.16L581.666 46H568.61L577.698 2.992H590.818L586.658 22.576ZM626.91 17.776C631.987 17.776 635.678 18.672 637.982 20.464C640.414 22.3413 641.63 25.456 641.63 29.808C641.63 32.496 641.182 34.928 640.286 37.104C639.39 39.2373 638.131 41.008 636.51 42.416C633.267 45.1467 628.574 46.512 622.43 46.512C617.182 46.512 613.427 45.5093 611.166 43.504C608.734 41.4133 607.518 38.2773 607.518 34.096C607.518 31.3227 608.073 28.8053 609.182 26.544C610.334 24.2827 611.977 22.4053 614.11 20.912C617.225 18.8213 621.491 17.776 626.91 17.776ZM622.558 42.16C623.625 42.16 624.542 41.5627 625.31 40.368C626.121 39.1733 626.761 37.7227 627.23 36.016C627.699 34.2667 628.041 32.4747 628.254 30.64C628.51 28.7627 628.638 27.1413 628.638 25.776C628.638 24.5813 628.51 23.6853 628.254 23.088C628.041 22.448 627.55 22.128 626.782 22.128C625.63 22.128 624.627 22.7467 623.774 23.984C622.963 25.2213 622.302 26.6933 621.79 28.4C621.278 30.1067 620.894 31.856 620.638 33.648C620.425 35.44 620.318 36.8907 620.318 38C620.318 40.7733 621.065 42.16 622.558 42.16ZM653.675 56.752H640.618L648.683 18.48H659.115L660.267 22.576H660.651C662.187 20.9547 663.893 19.8027 665.771 19.12C667.691 18.3947 669.568 18.032 671.403 18.032C672.896 18.032 674.133 18.2667 675.115 18.736C676.139 19.1627 676.949 19.76 677.547 20.528C678.144 21.296 678.571 22.2133 678.826 23.28C679.083 24.3467 679.211 25.4773 679.211 26.672C679.211 27.2693 679.168 28.1653 679.083 29.36C678.997 30.5547 678.805 31.8987 678.507 33.392C678.208 34.8427 677.781 36.3573 677.227 37.936C676.672 39.472 675.925 40.88 674.987 42.16C674.091 43.44 672.939 44.4853 671.531 45.296C670.165 46.1067 668.523 46.512 666.603 46.512C665.536 46.512 664.491 46.384 663.467 46.128C662.485 45.872 661.589 45.5307 660.779 45.104C659.968 44.6773 659.243 44.1867 658.603 43.632C658.005 43.0347 657.557 42.4373 657.259 41.84H656.875L653.675 56.752ZM660.458 40.304C661.483 40.304 662.336 39.7707 663.019 38.704C663.701 37.5947 664.256 36.3147 664.683 34.864C665.109 33.3707 665.408 31.8987 665.579 30.448C665.792 28.9547 665.899 27.8453 665.899 27.12C665.899 26.2667 665.749 25.5627 665.451 25.008C665.195 24.4533 664.704 24.176 663.979 24.176C663.168 24.176 662.4 24.4747 661.675 25.072C660.949 25.6267 660.416 26.1173 660.075 26.544L657.579 38.256C657.92 38.7253 658.325 39.1947 658.795 39.664C659.264 40.0907 659.819 40.304 660.458 40.304Z" fill="white"/>
    <path d="M217.903 98C217.765 98 217.642 97.968 217.535 97.904C217.429 97.8293 217.375 97.7227 217.375 97.584V86.704C217.375 86.5973 217.413 86.5067 217.487 86.432C217.573 86.3573 217.685 86.3147 217.823 86.304H220.767C221.386 86.304 221.946 86.416 222.447 86.64C222.949 86.864 223.343 87.2267 223.631 87.728C223.919 88.2187 224.063 88.8747 224.063 89.696V89.856C224.063 90.688 223.914 91.3547 223.615 91.856C223.327 92.3467 222.927 92.7093 222.415 92.944C221.914 93.168 221.354 93.28 220.735 93.28H218.431V97.584C218.431 97.7227 218.373 97.8293 218.255 97.904C218.149 97.968 218.031 98 217.903 98ZM218.431 92.352H220.735C221.45 92.352 222.005 92.1547 222.399 91.76C222.805 91.3547 223.007 90.736 223.007 89.904V89.728C223.007 88.8853 222.805 88.2667 222.399 87.872C222.005 87.4773 221.45 87.28 220.735 87.28H218.431V92.352ZM229.893 98C229.776 98 229.664 97.968 229.557 97.904C229.461 97.8293 229.413 97.7227 229.413 97.584V86.72C229.413 86.5813 229.461 86.48 229.557 86.416C229.664 86.3413 229.776 86.304 229.893 86.304H235.589C235.728 86.304 235.829 86.3573 235.893 86.464C235.957 86.56 235.989 86.6667 235.989 86.784C235.989 86.912 235.952 87.0293 235.877 87.136C235.813 87.232 235.717 87.28 235.589 87.28H230.469V91.68H232.981C233.109 91.68 233.205 91.728 233.269 91.824C233.344 91.92 233.381 92.032 233.381 92.16C233.381 92.2667 233.349 92.368 233.285 92.464C233.221 92.56 233.12 92.608 232.981 92.608H230.469V97.024H235.589C235.717 97.024 235.813 97.072 235.877 97.168C235.952 97.264 235.989 97.3813 235.989 97.52C235.989 97.6373 235.957 97.7493 235.893 97.856C235.829 97.952 235.728 98 235.589 98H229.893ZM247.25 98.032C247.133 98.032 247.026 97.9733 246.93 97.856C246.834 97.728 246.754 97.6 246.69 97.472L244.226 92.672H242.194V97.584C242.194 97.7227 242.135 97.8293 242.018 97.904C241.911 97.968 241.794 98 241.666 98C241.527 98 241.405 97.968 241.298 97.904C241.191 97.8293 241.138 97.7227 241.138 97.584V86.704C241.138 86.5973 241.175 86.5067 241.25 86.432C241.325 86.3573 241.421 86.3147 241.538 86.304H244.37C244.999 86.304 245.575 86.4 246.098 86.592C246.621 86.784 247.037 87.1093 247.346 87.568C247.666 88.0267 247.826 88.656 247.826 89.456C247.826 90.1173 247.714 90.6613 247.49 91.088C247.277 91.5147 246.978 91.8453 246.594 92.08C246.221 92.304 245.799 92.4587 245.33 92.544L247.794 97.28C247.826 97.312 247.842 97.3493 247.842 97.392C247.853 97.424 247.858 97.456 247.858 97.488C247.858 97.5733 247.826 97.6587 247.762 97.744C247.709 97.8293 247.634 97.8987 247.538 97.952C247.442 98.0053 247.346 98.032 247.25 98.032ZM242.194 91.76H244.37C245.085 91.76 245.661 91.5893 246.098 91.248C246.546 90.896 246.77 90.32 246.77 89.52C246.77 88.7093 246.546 88.1333 246.098 87.792C245.661 87.4507 245.085 87.28 244.37 87.28H242.194V91.76ZM253.719 98C253.58 98 253.458 97.968 253.351 97.904C253.244 97.84 253.191 97.7387 253.191 97.6V86.72C253.191 86.5813 253.239 86.48 253.335 86.416C253.442 86.3413 253.554 86.304 253.671 86.304H259.335C259.474 86.304 259.575 86.3573 259.639 86.464C259.703 86.56 259.735 86.6667 259.735 86.784C259.735 86.912 259.698 87.0293 259.623 87.136C259.559 87.232 259.463 87.28 259.335 87.28H254.247V91.68H256.775C256.892 91.68 256.983 91.728 257.047 91.824C257.122 91.92 257.159 92.032 257.159 92.16C257.159 92.2667 257.127 92.368 257.063 92.464C257.01 92.56 256.914 92.608 256.775 92.608H254.247V97.6C254.247 97.7387 254.188 97.84 254.071 97.904C253.964 97.968 253.847 98 253.719 98ZM267.6 98.096C266.982 98.096 266.422 97.984 265.92 97.76C265.419 97.536 265.019 97.1733 264.72 96.672C264.422 96.1707 264.272 95.504 264.272 94.672V89.728C264.272 88.896 264.422 88.2293 264.72 87.728C265.019 87.2267 265.414 86.864 265.904 86.64C266.406 86.416 266.971 86.304 267.6 86.304C268.23 86.304 268.795 86.416 269.296 86.64C269.798 86.864 270.198 87.2267 270.496 87.728C270.795 88.2293 270.944 88.896 270.944 89.728V94.672C270.944 95.504 270.795 96.1707 270.496 96.672C270.198 97.1733 269.798 97.536 269.296 97.76C268.795 97.984 268.23 98.096 267.6 98.096ZM267.6 97.12C268.315 97.12 268.87 96.9227 269.264 96.528C269.67 96.1333 269.872 95.5147 269.872 94.672V89.728C269.872 88.8853 269.67 88.2667 269.264 87.872C268.87 87.4773 268.315 87.28 267.6 87.28C266.886 87.28 266.331 87.4773 265.936 87.872C265.542 88.2667 265.344 88.8853 265.344 89.728V94.672C265.344 95.5147 265.542 96.1333 265.936 96.528C266.331 96.9227 266.886 97.12 267.6 97.12ZM282.956 98.032C282.839 98.032 282.732 97.9733 282.636 97.856C282.54 97.728 282.46 97.6 282.396 97.472L279.932 92.672H277.9V97.584C277.9 97.7227 277.841 97.8293 277.724 97.904C277.617 97.968 277.5 98 277.372 98C277.233 98 277.111 97.968 277.004 97.904C276.897 97.8293 276.844 97.7227 276.844 97.584V86.704C276.844 86.5973 276.881 86.5067 276.956 86.432C277.031 86.3573 277.127 86.3147 277.244 86.304H280.076C280.705 86.304 281.281 86.4 281.804 86.592C282.327 86.784 282.743 87.1093 283.052 87.568C283.372 88.0267 283.532 88.656 283.532 89.456C283.532 90.1173 283.42 90.6613 283.196 91.088C282.983 91.5147 282.684 91.8453 282.3 92.08C281.927 92.304 281.505 92.4587 281.036 92.544L283.5 97.28C283.532 97.312 283.548 97.3493 283.548 97.392C283.559 97.424 283.564 97.456 283.564 97.488C283.564 97.5733 283.532 97.6587 283.468 97.744C283.415 97.8293 283.34 97.8987 283.244 97.952C283.148 98.0053 283.052 98.032 282.956 98.032ZM277.9 91.76H280.076C280.791 91.76 281.367 91.5893 281.804 91.248C282.252 90.896 282.476 90.32 282.476 89.52C282.476 88.7093 282.252 88.1333 281.804 87.792C281.367 87.4507 280.791 87.28 280.076 87.28H277.9V91.76ZM289.425 98C289.287 98 289.164 97.968 289.057 97.904C288.951 97.8293 288.897 97.7227 288.897 97.584V86.816C288.897 86.624 288.951 86.4907 289.057 86.416C289.164 86.3413 289.287 86.304 289.425 86.304C289.553 86.304 289.665 86.3413 289.761 86.416C289.868 86.48 289.964 86.5707 290.049 86.688C290.135 86.7947 290.209 86.9173 290.273 87.056L293.025 92.352L295.761 87.056C295.847 86.9173 295.927 86.7947 296.001 86.688C296.087 86.5707 296.183 86.48 296.289 86.416C296.396 86.3413 296.508 86.304 296.625 86.304C296.775 86.304 296.897 86.3413 296.993 86.416C297.1 86.4907 297.153 86.624 297.153 86.816V97.584C297.153 97.7227 297.1 97.8293 296.993 97.904C296.887 97.968 296.764 98 296.625 98C296.497 98 296.375 97.968 296.257 97.904C296.151 97.8293 296.097 97.7227 296.097 97.584V88.592L293.441 93.616C293.377 93.744 293.308 93.8347 293.233 93.888C293.159 93.9413 293.084 93.968 293.009 93.968C292.945 93.968 292.876 93.9413 292.801 93.888C292.727 93.8347 292.652 93.744 292.577 93.616L289.953 88.56V97.584C289.953 97.7227 289.895 97.8293 289.777 97.904C289.671 97.968 289.553 98 289.425 98ZM302.897 98C302.811 98 302.721 97.984 302.625 97.952C302.529 97.9093 302.449 97.856 302.385 97.792C302.321 97.7173 302.289 97.6373 302.289 97.552C302.289 97.5093 302.294 97.472 302.305 97.44L305.649 86.592C305.691 86.4533 305.771 86.3573 305.889 86.304C306.006 86.24 306.134 86.208 306.273 86.208C306.422 86.208 306.555 86.24 306.673 86.304C306.801 86.368 306.881 86.464 306.913 86.592L310.241 97.44C310.251 97.472 310.257 97.504 310.257 97.536C310.257 97.6213 310.225 97.7013 310.161 97.776C310.097 97.84 310.017 97.8933 309.921 97.936C309.825 97.9787 309.723 98 309.617 98C309.531 98 309.451 97.9787 309.377 97.936C309.302 97.8933 309.249 97.824 309.217 97.728L308.481 95.264H304.065L303.329 97.728C303.297 97.824 303.243 97.8933 303.169 97.936C303.094 97.9787 303.003 98 302.897 98ZM304.321 94.352H308.209L306.273 87.904L304.321 94.352ZM315.922 98C315.783 98 315.661 97.968 315.554 97.904C315.447 97.8293 315.394 97.7227 315.394 97.584V86.704C315.394 86.5547 315.447 86.4533 315.554 86.4C315.661 86.336 315.783 86.304 315.922 86.304C316.05 86.304 316.162 86.3413 316.258 86.416C316.354 86.48 316.445 86.5707 316.53 86.688C316.615 86.7947 316.69 86.9173 316.754 87.056L321.074 95.552V86.704C321.074 86.5653 321.127 86.464 321.234 86.4C321.341 86.336 321.463 86.304 321.602 86.304C321.73 86.304 321.847 86.336 321.954 86.4C322.071 86.464 322.13 86.5653 322.13 86.704V97.584C322.13 97.7227 322.071 97.8293 321.954 97.904C321.847 97.968 321.73 98 321.602 98C321.453 98 321.314 97.9413 321.186 97.824C321.069 97.696 320.973 97.552 320.898 97.392L316.45 88.736V97.584C316.45 97.7227 316.391 97.8293 316.274 97.904C316.167 97.968 316.05 98 315.922 98ZM331.366 98.096C330.769 98.096 330.214 97.984 329.702 97.76C329.19 97.536 328.785 97.1733 328.486 96.672C328.187 96.1707 328.038 95.504 328.038 94.672V89.728C328.038 88.896 328.193 88.2293 328.502 87.728C328.811 87.2267 329.217 86.864 329.718 86.64C330.23 86.416 330.79 86.304 331.398 86.304C332.102 86.304 332.699 86.4267 333.19 86.672C333.681 86.9173 334.054 87.2427 334.31 87.648C334.577 88.0533 334.71 88.5013 334.71 88.992C334.71 89.248 334.662 89.4187 334.566 89.504C334.481 89.5787 334.353 89.616 334.182 89.616C333.99 89.616 333.851 89.5787 333.766 89.504C333.691 89.4187 333.649 89.3227 333.638 89.216C333.638 89.0453 333.606 88.8533 333.542 88.64C333.489 88.416 333.382 88.2027 333.222 88C333.073 87.7867 332.849 87.616 332.55 87.488C332.262 87.3493 331.883 87.28 331.414 87.28C330.667 87.28 330.097 87.4827 329.702 87.888C329.307 88.2827 329.11 88.896 329.11 89.728V94.672C329.11 95.5147 329.307 96.1333 329.702 96.528C330.107 96.9227 330.694 97.12 331.462 97.12C331.942 97.12 332.321 97.056 332.598 96.928C332.875 96.7893 333.083 96.624 333.222 96.432C333.361 96.2293 333.457 96.016 333.51 95.792C333.574 95.5573 333.617 95.344 333.638 95.152C333.659 95.0133 333.707 94.912 333.782 94.848C333.867 94.7733 333.995 94.736 334.166 94.736C334.347 94.736 334.481 94.784 334.566 94.88C334.662 94.9653 334.71 95.136 334.71 95.392C334.71 95.872 334.577 96.32 334.31 96.736C334.043 97.1413 333.659 97.472 333.158 97.728C332.667 97.9733 332.07 98.096 331.366 98.096ZM340.652 98C340.535 98 340.423 97.968 340.316 97.904C340.22 97.8293 340.172 97.7227 340.172 97.584V86.72C340.172 86.5813 340.22 86.48 340.316 86.416C340.423 86.3413 340.535 86.304 340.652 86.304H346.348C346.487 86.304 346.588 86.3573 346.652 86.464C346.716 86.56 346.748 86.6667 346.748 86.784C346.748 86.912 346.711 87.0293 346.636 87.136C346.572 87.232 346.476 87.28 346.348 87.28H341.228V91.68H343.74C343.868 91.68 343.964 91.728 344.028 91.824C344.103 91.92 344.14 92.032 344.14 92.16C344.14 92.2667 344.108 92.368 344.044 92.464C343.98 92.56 343.879 92.608 343.74 92.608H341.228V97.024H346.348C346.476 97.024 346.572 97.072 346.636 97.168C346.711 97.264 346.748 97.3813 346.748 97.52C346.748 97.6373 346.716 97.7493 346.652 97.856C346.588 97.952 346.487 98 346.348 98H340.652ZM361.724 98.16C360.946 98.16 360.279 98.0053 359.724 97.696C359.18 97.376 358.764 96.96 358.476 96.448C358.188 95.9253 358.044 95.36 358.044 94.752C358.044 94.208 358.151 93.728 358.364 93.312C358.578 92.896 358.85 92.544 359.18 92.256C359.511 91.9573 359.858 91.728 360.22 91.568C359.9 91.184 359.602 90.7733 359.324 90.336C359.058 89.888 358.924 89.36 358.924 88.752C358.924 88.176 359.052 87.6853 359.308 87.28C359.575 86.8747 359.927 86.5653 360.364 86.352C360.812 86.1387 361.298 86.032 361.82 86.032C362.407 86.032 362.892 86.128 363.276 86.32C363.66 86.512 363.948 86.7307 364.14 86.976C364.332 87.2213 364.428 87.424 364.428 87.584C364.428 87.712 364.38 87.824 364.284 87.92C364.188 88.016 364.071 88.064 363.932 88.064C363.826 88.064 363.724 88.0053 363.628 87.888C363.532 87.7707 363.415 87.6373 363.276 87.488C363.148 87.328 362.972 87.1947 362.748 87.088C362.524 86.9707 362.231 86.912 361.868 86.912C361.292 86.912 360.839 87.088 360.508 87.44C360.178 87.7813 360.012 88.24 360.012 88.816C360.012 89.1893 360.082 89.536 360.22 89.856C360.37 90.176 360.556 90.48 360.78 90.768C361.015 91.0453 361.255 91.3173 361.5 91.584L364.764 95.136C364.978 94.624 365.116 94.1013 365.18 93.568C365.244 93.0347 365.282 92.5867 365.292 92.224C365.303 92.0747 365.34 91.968 365.404 91.904C365.468 91.8293 365.591 91.792 365.772 91.792C365.943 91.792 366.06 91.84 366.124 91.936C366.188 92.0213 366.22 92.16 366.22 92.352C366.22 92.576 366.199 92.88 366.156 93.264C366.114 93.6373 366.039 94.0533 365.932 94.512C365.826 94.9707 365.655 95.4187 365.42 95.856L366.892 97.44C366.924 97.472 366.946 97.5093 366.956 97.552C366.978 97.5947 366.988 97.632 366.988 97.664C366.988 97.7813 366.935 97.888 366.828 97.984C366.732 98.0693 366.626 98.112 366.508 98.112C366.455 98.112 366.402 98.1013 366.348 98.08C366.306 98.0587 366.258 98.0213 366.204 97.968L364.908 96.592C364.578 97.04 364.151 97.4133 363.628 97.712C363.106 98.0107 362.471 98.16 361.724 98.16ZM361.852 97.2C362.45 97.2 362.94 97.0773 363.324 96.832C363.708 96.5867 364.018 96.2773 364.252 95.904L360.828 92.24C360.583 92.3787 360.327 92.5493 360.06 92.752C359.804 92.9547 359.58 93.2107 359.388 93.52C359.207 93.8187 359.116 94.1973 359.116 94.656C359.116 95.104 359.223 95.5253 359.436 95.92C359.65 96.304 359.959 96.6133 360.364 96.848C360.78 97.0827 361.276 97.2 361.852 97.2ZM379.397 98C379.258 98 379.136 97.968 379.029 97.904C378.922 97.8293 378.869 97.7227 378.869 97.584V86.816C378.869 86.624 378.922 86.4907 379.029 86.416C379.136 86.3413 379.258 86.304 379.397 86.304C379.525 86.304 379.637 86.3413 379.733 86.416C379.84 86.48 379.936 86.5707 380.021 86.688C380.106 86.7947 380.181 86.9173 380.245 87.056L382.997 92.352L385.733 87.056C385.818 86.9173 385.898 86.7947 385.973 86.688C386.058 86.5707 386.154 86.48 386.261 86.416C386.368 86.3413 386.48 86.304 386.597 86.304C386.746 86.304 386.869 86.3413 386.965 86.416C387.072 86.4907 387.125 86.624 387.125 86.816V97.584C387.125 97.7227 387.072 97.8293 386.965 97.904C386.858 97.968 386.736 98 386.597 98C386.469 98 386.346 97.968 386.229 97.904C386.122 97.8293 386.069 97.7227 386.069 97.584V88.592L383.413 93.616C383.349 93.744 383.28 93.8347 383.205 93.888C383.13 93.9413 383.056 93.968 382.981 93.968C382.917 93.968 382.848 93.9413 382.773 93.888C382.698 93.8347 382.624 93.744 382.549 93.616L379.925 88.56V97.584C379.925 97.7227 379.866 97.8293 379.749 97.904C379.642 97.968 379.525 98 379.397 98ZM392.869 98C392.783 98 392.693 97.984 392.597 97.952C392.501 97.9093 392.421 97.856 392.357 97.792C392.293 97.7173 392.261 97.6373 392.261 97.552C392.261 97.5093 392.266 97.472 392.277 97.44L395.621 86.592C395.663 86.4533 395.743 86.3573 395.861 86.304C395.978 86.24 396.106 86.208 396.245 86.208C396.394 86.208 396.527 86.24 396.645 86.304C396.773 86.368 396.853 86.464 396.885 86.592L400.213 97.44C400.223 97.472 400.229 97.504 400.229 97.536C400.229 97.6213 400.197 97.7013 400.133 97.776C400.069 97.84 399.989 97.8933 399.893 97.936C399.797 97.9787 399.695 98 399.589 98C399.503 98 399.423 97.9787 399.349 97.936C399.274 97.8933 399.221 97.824 399.189 97.728L398.453 95.264H394.037L393.301 97.728C393.269 97.824 393.215 97.8933 393.141 97.936C393.066 97.9787 392.975 98 392.869 98ZM394.293 94.352H398.181L396.245 87.904L394.293 94.352ZM405.894 98C405.755 98 405.633 97.968 405.526 97.904C405.419 97.8293 405.366 97.7227 405.366 97.584V86.704C405.366 86.5653 405.419 86.464 405.526 86.4C405.633 86.336 405.755 86.304 405.894 86.304C406.022 86.304 406.139 86.336 406.246 86.4C406.363 86.464 406.422 86.5653 406.422 86.704V97.584C406.422 97.7227 406.363 97.8293 406.246 97.904C406.139 97.968 406.022 98 405.894 98ZM412.978 98C412.84 98 412.717 97.968 412.61 97.904C412.504 97.8293 412.45 97.7227 412.45 97.584V86.704C412.45 86.5547 412.504 86.4533 412.61 86.4C412.717 86.336 412.84 86.304 412.978 86.304C413.106 86.304 413.218 86.3413 413.314 86.416C413.41 86.48 413.501 86.5707 413.586 86.688C413.672 86.7947 413.746 86.9173 413.81 87.056L418.13 95.552V86.704C418.13 86.5653 418.184 86.464 418.29 86.4C418.397 86.336 418.52 86.304 418.658 86.304C418.786 86.304 418.904 86.336 419.01 86.4C419.128 86.464 419.186 86.5653 419.186 86.704V97.584C419.186 97.7227 419.128 97.8293 419.01 97.904C418.904 97.968 418.786 98 418.658 98C418.509 98 418.37 97.9413 418.242 97.824C418.125 97.696 418.029 97.552 417.954 97.392L413.506 88.736V97.584C413.506 97.7227 413.448 97.8293 413.33 97.904C413.224 97.968 413.106 98 412.978 98ZM427.83 98C427.692 98 427.569 97.968 427.462 97.904C427.356 97.8293 427.302 97.7227 427.302 97.584V87.296H424.614C424.486 87.296 424.385 87.248 424.31 87.152C424.236 87.0453 424.198 86.928 424.198 86.8C424.198 86.672 424.236 86.56 424.31 86.464C424.385 86.3573 424.486 86.304 424.614 86.304H431.03C431.169 86.304 431.27 86.3573 431.334 86.464C431.398 86.56 431.43 86.6667 431.43 86.784C431.43 86.912 431.398 87.0293 431.334 87.136C431.27 87.2427 431.169 87.296 431.03 87.296H428.358V97.584C428.358 97.7227 428.3 97.8293 428.182 97.904C428.076 97.968 427.958 98 427.83 98ZM436.927 98C436.81 98 436.698 97.968 436.591 97.904C436.495 97.8293 436.447 97.7227 436.447 97.584V86.72C436.447 86.5813 436.495 86.48 436.591 86.416C436.698 86.3413 436.81 86.304 436.927 86.304H442.623C442.762 86.304 442.863 86.3573 442.927 86.464C442.991 86.56 443.023 86.6667 443.023 86.784C443.023 86.912 442.986 87.0293 442.911 87.136C442.847 87.232 442.751 87.28 442.623 87.28H437.503V91.68H440.015C440.143 91.68 440.239 91.728 440.303 91.824C440.378 91.92 440.415 92.032 440.415 92.16C440.415 92.2667 440.383 92.368 440.319 92.464C440.255 92.56 440.154 92.608 440.015 92.608H437.503V97.024H442.623C442.751 97.024 442.847 97.072 442.911 97.168C442.986 97.264 443.023 97.3813 443.023 97.52C443.023 97.6373 442.991 97.7493 442.927 97.856C442.863 97.952 442.762 98 442.623 98H436.927ZM448.7 98C448.562 98 448.439 97.968 448.332 97.904C448.226 97.8293 448.172 97.7227 448.172 97.584V86.704C448.172 86.5547 448.226 86.4533 448.332 86.4C448.439 86.336 448.562 86.304 448.7 86.304C448.828 86.304 448.94 86.3413 449.036 86.416C449.132 86.48 449.223 86.5707 449.308 86.688C449.394 86.7947 449.468 86.9173 449.532 87.056L453.852 95.552V86.704C453.852 86.5653 453.906 86.464 454.012 86.4C454.119 86.336 454.242 86.304 454.38 86.304C454.508 86.304 454.626 86.336 454.732 86.4C454.85 86.464 454.908 86.5653 454.908 86.704V97.584C454.908 97.7227 454.85 97.8293 454.732 97.904C454.626 97.968 454.508 98 454.38 98C454.231 98 454.092 97.9413 453.964 97.824C453.847 97.696 453.751 97.552 453.676 97.392L449.228 88.736V97.584C449.228 97.7227 449.17 97.8293 449.052 97.904C448.946 97.968 448.828 98 448.7 98ZM460.656 98C460.571 98 460.48 97.984 460.384 97.952C460.288 97.9093 460.208 97.856 460.144 97.792C460.08 97.7173 460.048 97.6373 460.048 97.552C460.048 97.5093 460.053 97.472 460.064 97.44L463.408 86.592C463.451 86.4533 463.531 86.3573 463.648 86.304C463.765 86.24 463.893 86.208 464.032 86.208C464.181 86.208 464.315 86.24 464.432 86.304C464.56 86.368 464.64 86.464 464.672 86.592L468 97.44C468.011 97.472 468.016 97.504 468.016 97.536C468.016 97.6213 467.984 97.7013 467.92 97.776C467.856 97.84 467.776 97.8933 467.68 97.936C467.584 97.9787 467.483 98 467.376 98C467.291 98 467.211 97.9787 467.136 97.936C467.061 97.8933 467.008 97.824 466.976 97.728L466.24 95.264H461.824L461.088 97.728C461.056 97.824 461.003 97.8933 460.928 97.936C460.853 97.9787 460.763 98 460.656 98ZM462.08 94.352H465.968L464.032 87.904L462.08 94.352ZM473.682 98C473.543 98 473.42 97.968 473.314 97.904C473.207 97.8293 473.154 97.7227 473.154 97.584V86.704C473.154 86.5547 473.207 86.4533 473.314 86.4C473.42 86.336 473.543 86.304 473.682 86.304C473.81 86.304 473.922 86.3413 474.018 86.416C474.114 86.48 474.204 86.5707 474.289 86.688C474.375 86.7947 474.45 86.9173 474.514 87.056L478.834 95.552V86.704C478.834 86.5653 478.887 86.464 478.994 86.4C479.1 86.336 479.223 86.304 479.362 86.304C479.49 86.304 479.607 86.336 479.714 86.4C479.831 86.464 479.89 86.5653 479.89 86.704V97.584C479.89 97.7227 479.831 97.8293 479.714 97.904C479.607 97.968 479.49 98 479.362 98C479.212 98 479.074 97.9413 478.946 97.824C478.828 97.696 478.732 97.552 478.658 97.392L474.21 88.736V97.584C474.21 97.7227 474.151 97.8293 474.034 97.904C473.927 97.968 473.81 98 473.682 98ZM489.125 98.096C488.528 98.096 487.973 97.984 487.461 97.76C486.949 97.536 486.544 97.1733 486.245 96.672C485.947 96.1707 485.797 95.504 485.797 94.672V89.728C485.797 88.896 485.952 88.2293 486.261 87.728C486.571 87.2267 486.976 86.864 487.477 86.64C487.989 86.416 488.549 86.304 489.157 86.304C489.861 86.304 490.459 86.4267 490.949 86.672C491.44 86.9173 491.813 87.2427 492.069 87.648C492.336 88.0533 492.469 88.5013 492.469 88.992C492.469 89.248 492.421 89.4187 492.325 89.504C492.24 89.5787 492.112 89.616 491.941 89.616C491.749 89.616 491.611 89.5787 491.525 89.504C491.451 89.4187 491.408 89.3227 491.397 89.216C491.397 89.0453 491.365 88.8533 491.301 88.64C491.248 88.416 491.141 88.2027 490.981 88C490.832 87.7867 490.608 87.616 490.309 87.488C490.021 87.3493 489.643 87.28 489.173 87.28C488.427 87.28 487.856 87.4827 487.461 87.888C487.067 88.2827 486.869 88.896 486.869 89.728V94.672C486.869 95.5147 487.067 96.1333 487.461 96.528C487.867 96.9227 488.453 97.12 489.221 97.12C489.701 97.12 490.08 97.056 490.357 96.928C490.635 96.7893 490.843 96.624 490.981 96.432C491.12 96.2293 491.216 96.016 491.269 95.792C491.333 95.5573 491.376 95.344 491.397 95.152C491.419 95.0133 491.467 94.912 491.541 94.848C491.627 94.7733 491.755 94.736 491.925 94.736C492.107 94.736 492.24 94.784 492.325 94.88C492.421 94.9653 492.469 95.136 492.469 95.392C492.469 95.872 492.336 96.32 492.069 96.736C491.803 97.1413 491.419 97.472 490.917 97.728C490.427 97.9733 489.829 98.096 489.125 98.096ZM498.412 98C498.294 98 498.182 97.968 498.076 97.904C497.98 97.8293 497.932 97.7227 497.932 97.584V86.72C497.932 86.5813 497.98 86.48 498.076 86.416C498.182 86.3413 498.294 86.304 498.412 86.304H504.108C504.246 86.304 504.348 86.3573 504.412 86.464C504.476 86.56 504.508 86.6667 504.508 86.784C504.508 86.912 504.47 87.0293 504.396 87.136C504.332 87.232 504.236 87.28 504.108 87.28H498.988V91.68H501.5C501.628 91.68 501.724 91.728 501.788 91.824C501.862 91.92 501.9 92.032 501.9 92.16C501.9 92.2667 501.868 92.368 501.804 92.464C501.74 92.56 501.638 92.608 501.5 92.608H498.988V97.024H504.108C504.236 97.024 504.332 97.072 504.396 97.168C504.47 97.264 504.508 97.3813 504.508 97.52C504.508 97.6373 504.476 97.7493 504.412 97.856C504.348 97.952 504.246 98 504.108 98H498.412Z" fill="white"/>
    <circle cx="360" cy="72.5" r="1" fill="white"/>
    <path fill-rule="evenodd" clip-rule="evenodd" d="M232 72.5C232 72.2239 232.224 72 232.5 72H487.5C487.776 72 488 72.2239 488 72.5C488 72.7761 487.776 73 487.5 73H232.5C232.224 73 232 72.7761 232 72.5ZM371 73H349V72H371V73Z" fill="white"/>
</svg>
